<svg xmlns="http://www.w3.org/2000/svg" width="204" height="204" viewBox="0 0 204 204">
    <linearGradient id="a" gradientUnits="userSpaceOnUse" x1="5.956" y1="-974.15" x2="38.656" y2="-974.15" gradientTransform="matrix(1 0 0 -1 0 -800)">
        <stop offset="0" stop-color="#FFF" />
        <stop offset=".994" stop-color="#979EA7" stop-opacity=".602" />
    </linearGradient>
    <path fill="url(#a)" d="M5.99 172.3h32.7v3.7H5.99z" />
    <path fill="#EFF0F2" d="M170.21 176h-10.33V89.13h10.33c4.21 0 7.78 3.44 7.78 7.78v71.44c-.12 4.21-3.57 7.65-7.78 7.65zm-43.37-86.37h15.18l-8.42-14.42c-.89-1.4-2.29-2.29-3.95-2.29h-12.5l9.69 16.71z" />
    <path fill="#DFE1E5" d="M159.88 176H37.66c-2.55 0-4.6-2.04-4.6-4.6V93.72c0-2.55 2.04-4.6 4.6-4.6h34.19l8.16-13.9c.89-1.4 2.29-2.29 3.95-2.29h30.49c1.66 0 3.18.89 3.95 2.29l8.29 14.03h33.04c2.55 0 4.6 2.04 4.6 4.6v77.56c.13 2.55-1.9 4.59-4.45 4.59z" />
    <linearGradient id="b" gradientUnits="userSpaceOnUse" x1="-796.691" y1="1130.828" x2="-805.187" y2="1285.315" gradientTransform="matrix(1.64 1.64 0.3 -0.3 1019.05 1831.89)">
        <stop offset="0" stop-color="#FFF" stop-opacity="0" />
        <stop offset=".22" stop-color="#EEEFF0" stop-opacity=".1" />
        <stop offset=".64" stop-color="#C0C5CA" stop-opacity=".35" />
        <stop offset="1" stop-color="#959CA5" stop-opacity=".6" />
    </linearGradient>
    <path fill="url(#b)" d="M33.2 131.48l-.12 39.8c0 2.55 2.04 4.72 4.6 4.72h48.73l26.28-14.28-52.3-52.3-27.19 22.06z" />
    <path fill="#BABFC5" d="M99.15 164.52c19 0 34.31-15.31 34.31-34.31S118.15 95.9 99.15 95.9H87.28v68.5c.01-.01 11.87.12 11.87.12z" />
    <path fill="#FFF" d="M151.84 105.2h-5.87V95.12h5.87c2.81 0 5.1 2.29 5.1 5.1 0 2.82-2.3 4.98-5.1 4.98z" />
    <circle fill="#EFF0F2" cx="87.55" cy="130.2" r="34.31" />
    <circle fill="#CDD0D5" cx="87.55" cy="130.2" r="25.13" />
    <linearGradient id="c" gradientUnits="userSpaceOnUse" x1="-2582.851" y1="1045.309" x2="-2566.348" y2="1061.812" gradientTransform="matrix(-1 0 0 1 -2422.01 -973.82)">
        <stop offset="0" stop-color="#4285F4" />
        <stop offset="1" stop-color="#6199F6" />
    </linearGradient>
    <path fill="#6A1B9A" d="M161.54 86.7h-17.86c-.89 0-1.54-.63-1.54-1.54V74.33c0-.89.63-1.54 1.54-1.54h17.86c.89 0 1.54.63 1.54 1.54v10.84c-.02.77-.65 1.53-1.54 1.53z" />
    <linearGradient id="d" gradientUnits="userSpaceOnUse" x1="-2582.852" y1="1029.11" x2="-2566.35" y2="1045.612" gradientTransform="matrix(-1 0 0 1 -2422.01 -973.82)">
        <stop offset="0" stop-color="#DF382B" />
        <stop offset="1" stop-color="#E4594E" />
    </linearGradient>
    <path fill="#9C27B0" d="M161.54 70.51h-17.86c-.89 0-1.54-.63-1.54-1.54V58.13c0-.89.63-1.54 1.54-1.54h17.86c.89 0 1.54.63 1.54 1.54v10.84c-.02.77-.65 1.54-1.54 1.54z" />
    <linearGradient id="e" gradientUnits="userSpaceOnUse" x1="-2582.856" y1="1012.904" x2="-2566.361" y2="1029.411" gradientTransform="matrix(-1 0 0 1 -2422.01 -973.81)">
        <stop offset="0" stop-color="#FABB05" />
        <stop offset="1" stop-color="#FBC730" />
    </linearGradient>
    <path fill="#9C27B0" d="M161.54 54.3h-17.86c-.89 0-1.54-.63-1.54-1.54V41.92c0-.89.63-1.54 1.54-1.54h17.86c.89 0 1.54.63 1.54 1.54v10.84c-.02.9-.65 1.54-1.54 1.54z" />
    <linearGradient id="f" gradientUnits="userSpaceOnUse" x1="-2582.857" y1="996.713" x2="-2566.362" y2="1013.221" gradientTransform="matrix(-1 0 0 1 -2422.01 -973.82)">
        <stop offset="0" stop-color="#34A853" />
        <stop offset="1" stop-color="#53BA6F" />
    </linearGradient>
    <path fill="#BA68C8" d="M161.54 38.1h-17.86c-.89 0-1.54-.63-1.54-1.54V25.72c0-.89.63-1.54 1.54-1.54h17.86c.89 0 1.54.63 1.54 1.54v10.84c-.02.9-.65 1.54-1.54 1.54z" />
    <path fill="#BABFC5" d="M145.97 105.2h-5.87c-2.81 0-5.1-2.29-5.1-5.1s2.29-5.1 5.1-5.1h5.87v10.2zM47.62 82.36h11.22c2.17 0 3.83 1.66 3.83 3.83v3.18H43.79v-3.06c-.13-2.15 1.65-3.95 3.83-3.95z" />
    <linearGradient id="g" gradientUnits="userSpaceOnUse" x1="78.354" y1="-936.015" x2="113.841" y2="-900.528" gradientTransform="matrix(1 0 0 -1 0 -790.97)">
        <stop offset="0" stop-color="#FFF" />
        <stop offset="1" stop-color="#DFE1E5" />
    </linearGradient>
    <path fill="url(#g)" d="M73.77 130.08c0 11.99 8.42 22.06 19.77 24.49 11.1-2.68 19.26-12.5 19.26-24.37 0-11.99-8.42-22.06-19.77-24.49-11.1 2.55-19.26 12.5-19.26 24.37z" />
    <circle opacity=".4" fill="#BABFC5" cx="87.55" cy="130.2" r="13.39" />
    <circle opacity=".4" fill="#BABFC5" cx="87.55" cy="130.2" r="5.74" />
    <circle opacity=".4" fill="#FFF" cx="99.15" cy="119.49" r="7.4" />
</svg>