<svg xmlns="http://www.w3.org/2000/svg" width="24" height="24" style=""><rect id="backgroundrect" width="100%" height="100%" x="0" y="0" fill="none" stroke="none"/><g class="currentLayer" style=""><title>Layer 1</title><path d="M12,2 C8.13,2 5,5.13 5,9 c0,5.25 7,13 7,13 s7,-7.75 7,-13 c0,-3.87 -3.13,-7 -7,-7 zm0,9.5 c-1.3800000000000001,0 -2.5,-1.12 -2.5,-2.5 s1.12,-2.5 2.5,-2.5 s2.5,1.12 2.5,2.5 s-1.12,2.5 -2.5,2.5 z" fill="#81007F" id="svg_1" class=""/><path d="M0.136932373046875,0.11323213577270508 h24 v24 H0.136932373046875 z" fill="none" id="svg_2" class=""/><path fill="#81007F" fill-opacity="1" stroke="#81007F" stroke-opacity="1" stroke-width="1" stroke-dasharray="none" stroke-linejoin="miter" stroke-linecap="butt" stroke-dashoffset="" fill-rule="nonzero" opacity="1" marker-start="" marker-mid="" marker-end="" d="M7.820606399511206,9.266293641109023 C7.820606399511206,6.785743253559602 9.656326328071444,4.776497439644572 11.922647227528529,4.776497439644572 C14.188968126985614,4.776497439644572 16.02468805554585,6.785743253559602 16.02468805554585,9.266293641109023 C16.02468805554585,11.746844028658437 14.188968126985614,13.756089842573466 11.922647227528529,13.756089842573466 C9.656326328071444,13.756089842573466 7.820606399511206,11.746844028658437 7.820606399511206,9.266293641109023 z" class="" id="svg_7"/></g></svg>