<?xml version="1.0" encoding="utf-8"?>
<!-- Generator: Adobe Illustrator 23.0.6, SVG Export Plug-In . SVG Version: 6.00 Build 0)  -->
<svg version="1.1" id="Layer_1" xmlns="http://www.w3.org/2000/svg" xmlns:xlink="http://www.w3.org/1999/xlink" x="0px" y="0px"
	 width="24px" height="24px" viewBox="0 0 24 24" style="enable-background:new 0 0 24 24;" xml:space="preserve">
<style type="text/css">
	.st0{fill:none;}
	.st1{fill:#1E0096;}
</style>
<rect id="backgroundrect" class="st0" width="24" height="24"/>
<g>
	<title>Layer 1</title>
	<path id="svg_1" class="st1" d="M12,2C8.1,2,5,5.1,5,9c0,5.3,7,13,7,13s7-7.8,7-13C19,5.1,15.9,2,12,2z M12,11.5
		c-1.4,0-2.5-1.1-2.5-2.5s1.1-2.5,2.5-2.5s2.5,1.1,2.5,2.5S13.4,11.5,12,11.5z"/>
	<path id="svg_2" class="st0" d="M0,0h24v24H0V0z"/>
	<path id="svg_3" marker-mid="" marker-start="" marker-end="" class="st1" d="M8,9c0-2.2,1.8-4,4-4s4,1.8,4,4s-1.8,4-4,4
		S8,11.2,8,9z"/>
</g>
</svg>
