<?xml version="1.0" encoding="utf-8"?>
<!-- Generator: Adobe Illustrator 23.0.1, SVG Export Plug-In . SVG Version: 6.00 Build 0)  -->
<svg version="1.1" id="Layer_1" xmlns="http://www.w3.org/2000/svg" xmlns:xlink="http://www.w3.org/1999/xlink" x="0px" y="0px"
	 viewBox="0 0 117 140" style="enable-background:new 0 0 117 140;" xml:space="preserve">
<g>
	<path style="fill:#7e007c;" d="M88.8,51.5c-8.7-24-36.5-28.2-52-12.8h0c-12.1,12.1-12.1,31.8,0,44h0c15.5,15.5,43.2,11.2,52-12.8
		C91,64,91,57.4,88.8,51.5z"/>
	<path style="fill:#7e007c;" d="M98.4,21.2c-21.8-21.8-57.2-21.8-79,0C8.8,31.7,3,45.8,3,60.7C3,66.3,3.8,71.8,5.4,77
		c2.6,8.7,7.4,16.6,14,23.2l33.4,33.4c2.7,2.7,7.2,2.7,9.9,0l0,0c2.7-2.7,2.7-7.2,0-9.9L29.3,90.3C21.4,82.4,17,71.9,17,60.7
		S21.4,39,29.3,31.1c16.3-16.3,42.8-16.3,59.2,0c10.6,10.6,14.8,26,10.7,41.4c-1.2,4.3-3.1,8.3-5.7,11.9c-3.7,5.1-8.1,9.2-13.1,12.2
		c-3.9,2.4-4.6,7.7-1.4,11l0,0c2.2,2.2,5.7,2.7,8.5,1.1c4-2.4,7.7-5.2,11-8.5c10.6-10.6,16.4-24.6,16.4-39.5S108.9,31.7,98.4,21.2z"
		/>
</g>
</svg>
