<?xml version="1.0" encoding="utf-8"?>
<!-- Generator: Adobe Illustrator 23.0.1, SVG Export Plug-In . SVG Version: 6.00 Build 0)  -->
<svg version="1.1" id="Layer_1" xmlns="http://www.w3.org/2000/svg" xmlns:xlink="http://www.w3.org/1999/xlink" x="0px" y="0px"
	 viewBox="0 0 62 74" style="enable-background:new 0 0 62 74;" xml:space="preserve">
<g>
	<g>
		<path style="fill:#81007F;" d="M42.5,20c-6.4-6.4-16.9-6.4-23.3,0h0c-6.4,6.4-6.4,16.9,0,23.3h0c6.4,6.4,16.9,6.4,23.3,0
			C48.9,36.9,48.9,26.4,42.5,20z"/>
		<path style="fill:#81007F;" d="M51.8,10.7C40.2-0.8,21.4-0.8,9.9,10.7c-5.6,5.6-8.7,13-8.7,20.9c0,3,0.4,5.9,1.3,8.6
			c1.4,4.6,3.9,8.8,7.4,12.3l20.3,20.3l5.3-5.3L15.2,47.3c-4.2-4.2-6.5-9.8-6.5-15.7S11,20.1,15.2,16c8.6-8.6,22.7-8.6,31.3,0
			c4.2,4.2,6.5,9.8,6.5,15.7s-2.3,11.5-6.5,15.7c-2.5,2.5-5.5,4.3-8.8,5.4l5.7,5.7c3.1-1.5,6-3.4,8.4-5.9c5.6-5.6,8.7-13,8.7-20.9
			S57.4,16.3,51.8,10.7z"/>
	</g>
</g>
</svg>
