<?xml version="1.0" encoding="utf-8"?>
<!-- Generator: Adobe Illustrator 23.0.6, SVG Export Plug-In . SVG Version: 6.00 Build 0)  -->
<svg version="1.1" xmlns="http://www.w3.org/2000/svg" xmlns:xlink="http://www.w3.org/1999/xlink" x="0px" y="0px"
	 viewBox="0 0 200 200" style="enable-background:new 0 0 200 200;" xml:space="preserve">
<style type="text/css">
	.st0{fill:#7E007C;}
	.st1{fill-rule:evenodd;clip-rule:evenodd;fill:#FFFFFF;}
	.st2{fill-rule:evenodd;clip-rule:evenodd;fill:#7E007E;}
</style>
<g id="Layer_1">
	<g>
		<circle class="st0" cx="99.88" cy="100" r="100"/>
	</g>
</g>
<g id="Layer_2">
	<g id="Layer_3">
		<path class="st1" d="M42.4,26.52c28.32,0,56.67,0,84.99,0c6.48,0,27.78-1.65,31.46,0.9c3.63,2.53,2.11,25.29,2.11,32.36
			c0,27.42,0,54.86,0,82.28c0,6.48,1.51,26.56-1.2,29.95c-2.99,3.71-17.58,1.81-23.89,1.81c-23.49,0-46.99,0-70.48,0
			c-7.59,0-23.73,2.23-26.32-3.03c-2.49-4.66-0.6-24.57-0.6-31.46c0-26.52,0-53.03,0-79.55C38.47,49.13,35.82,31.06,42.4,26.52z"/>
		<path class="st2" d="M59.64,44.07c-0.3,0.4-0.6,0.8-0.9,1.2c0.1,15.94,0.2,31.86,0.3,47.8c0.3,0.1,0.6,0.2,0.9,0.3
			c20.15,0.1,40.33,0.2,60.5,0.3c5.74,0,15.94,1.41,19.97-0.9c1.14-6.1,1.28-44.99-0.6-48.7C113.08,44.07,86.36,44.07,59.64,44.07z"
			/>
		<path class="st1" d="M72.65,55.27c2.73-0.08,6.36-0.24,8.17,0.6c1,5.64,8.23,20.42,6.34,24.81c-2.23,0.08-4.68,0.06-6.04-0.6
			c-0.5-1.91-1-3.83-1.51-5.74c-2.21,0.1-4.44,0.2-6.66,0.3c-0.6,2.01-1.2,4.03-1.81,6.04c-2.17,0.12-4.88,0.38-5.74-0.9
			C64.62,76.91,71.05,58.66,72.65,55.27z"/>
		<path class="st1" d="M98.37,60.71c0.08,5.66,1.43,15.56-0.6,19.97c-2.15,0.08-4.44,0.02-5.74-0.6c0-6.44,0-12.91,0-19.35
			c-2.37,0.08-5.16,0.1-6.66-0.6c-0.08-1.95,0.04-3.69,0.6-4.84c5.44-0.08,14.85-1.32,19.05,0.6c-0.1,1.61-0.2,3.23-0.3,4.84
			C102.6,60.71,100.47,60.71,98.37,60.71z"/>
		<path class="st1" d="M108.34,55.27c2.65-0.08,6.12-0.22,7.87,0.6c1.3,4.74,2.63,9.47,3.93,14.21c0.1,0,0.2,0,0.3,0
			c1.51-4.94,3.03-9.88,4.54-14.81c2.65-0.08,6.12-0.22,7.87,0.6c0.24,6.06,2.77,20.01,0.6,24.81c-2.13,0.12-4.6,0.36-5.44-0.9
			c-0.3-5.24-0.6-10.48-0.9-15.74c-1.71,5.44-3.43,10.88-5.14,16.34c-1.41-0.1-2.83-0.2-4.24-0.3c-3.35-2.79-2.75-11.1-4.84-15.12
			c0.08,4.62,0.44,12.16-1.2,15.74c-2.09,0.08-4.2,0-5.44-0.6C106.16,73.96,106.18,59.68,108.34,55.27z"/>
		<path class="st2" d="M75.16,62.23c-0.34,2.43-0.66,4.84-1,7.27c0.78,0,1.57,0,2.35,0c0-0.1,0-0.2,0-0.3
			C76.07,66.87,75.6,64.54,75.16,62.23z"/>
		<path class="st2" d="M62.37,116.07c9.37,0,18.75,0,28.12,0c0.1,0.8,0.2,1.61,0.3,2.43c0.3,0.1,0.6,0.2,0.9,0.3
			c1.41,0,2.83,0,4.24,0c0.1-0.3,0.2-0.6,0.3-0.9c0-2.11,0-4.24,0-6.34c-0.2-0.4-0.4-0.8-0.6-1.2c-6.3-1.18-34.95-1.77-39.32,0.6
			c-0.1,3.05-0.16,6.4,0.9,8.17c0.1,0,0.2,0,0.3,0c2.25,0.08,3.35-0.16,4.54-0.9c0.1-0.2,0.2-0.4,0.3-0.6
			C62.37,117.08,62.37,116.57,62.37,116.07z"/>
		<path class="st2" d="M102.3,114.85c-0.3,0.3-0.6,0.6-0.9,0.9c-0.1,2.67-0.7,8.25,0.9,9.37c2.83,0,5.64,0,8.47,0
			c0.3-0.2,0.6-0.4,0.9-0.6c-0.1-2.93-0.2-5.84-0.3-8.77c-0.2-0.3-0.4-0.6-0.6-0.9C107.94,114.85,105.11,114.85,102.3,114.85z"/>
		<path class="st2" d="M118.02,114.85c-0.3,0.3-0.6,0.6-0.9,0.9c-0.1,2.67-0.7,8.25,0.9,9.37c2.83,0,5.64,0,8.47,0
			c0.3-0.2,0.6-0.4,0.9-0.6c-0.1-2.93-0.2-5.84-0.3-8.77c-0.2-0.3-0.4-0.6-0.6-0.9C123.66,114.85,120.85,114.85,118.02,114.85z"/>
		<path class="st2" d="M133.76,114.85c-0.3,0.3-0.6,0.6-0.9,0.9c-0.1,2.67-0.7,8.25,0.9,9.37c2.83,0,5.64,0,8.47,0
			c0.3-0.2,0.6-0.4,0.9-0.6c-0.1-2.93-0.2-5.84-0.3-8.77c-0.2-0.3-0.4-0.6-0.6-0.9C139.4,114.85,136.57,114.85,133.76,114.85z"/>
		<path class="st2" d="M64.78,118.78c-1.93,2.39-2.07,33.68-0.3,36.9c5.7,1.12,20.48,1.67,24.51-0.9c0.08-8.19,2.05-30.51-0.9-35.99
			C80.32,118.78,72.55,118.78,64.78,118.78z"/>
		<path class="st2" d="M102.3,130.59c-0.3,0.3-0.6,0.6-0.9,0.9c-0.1,2.67-0.7,8.25,0.9,9.37c2.83,0,5.64,0,8.47,0
			c0.3-0.2,0.6-0.4,0.9-0.6c-0.1-2.93-0.2-5.84-0.3-8.77c-0.2-0.3-0.4-0.6-0.6-0.9C107.94,130.59,105.11,130.59,102.3,130.59z"/>
		<path class="st2" d="M118.02,130.59c-0.3,0.3-0.6,0.6-0.9,0.9c-0.1,2.67-0.7,8.25,0.9,9.37c2.83,0,5.64,0,8.47,0
			c0.3-0.2,0.6-0.4,0.9-0.6c-0.1-2.93-0.2-5.84-0.3-8.77c-0.2-0.3-0.4-0.6-0.6-0.9C123.66,130.59,120.85,130.59,118.02,130.59z"/>
		<path class="st2" d="M133.76,130.59c-0.3,0.3-0.6,0.6-0.9,0.9c-0.1,2.67-0.7,8.25,0.9,9.37c2.83,0,5.64,0,8.47,0
			c0.3-0.2,0.6-0.4,0.9-0.6c-0.1-2.93-0.2-5.84-0.3-8.77c-0.2-0.3-0.4-0.6-0.6-0.9C139.4,130.59,136.57,130.59,133.76,130.59z"/>
		<path class="st2" d="M102.3,146.32c-0.3,0.3-0.6,0.6-0.9,0.9c-0.1,2.67-0.7,8.25,0.9,9.37c2.83,0,5.64,0,8.47,0
			c0.3-0.2,0.6-0.4,0.9-0.6c-0.1-2.93-0.2-5.84-0.3-8.77c-0.2-0.3-0.4-0.6-0.6-0.9C107.94,146.32,105.11,146.32,102.3,146.32z"/>
		<path class="st2" d="M118.02,146.32c-0.3,0.3-0.6,0.6-0.9,0.9c-0.1,2.67-0.7,8.25,0.9,9.37c2.83,0,5.64,0,8.47,0
			c0.3-0.2,0.6-0.4,0.9-0.6c-0.1-2.93-0.2-5.84-0.3-8.77c-0.2-0.3-0.4-0.6-0.6-0.9C123.66,146.32,120.85,146.32,118.02,146.32z"/>
		<path class="st2" d="M133.76,146.32c-0.3,0.3-0.6,0.6-0.9,0.9c-0.1,2.67-0.7,8.25,0.9,9.37c2.83,0,5.64,0,8.47,0
			c0.3-0.2,0.6-0.4,0.9-0.6c-0.1-2.93-0.2-5.84-0.3-8.77c-0.2-0.3-0.4-0.6-0.6-0.9C139.4,146.32,136.57,146.32,133.76,146.32z"/>
	</g>
</g>
</svg>
