<?xml version="1.0" encoding="utf-8"?>
<!-- Generator: Adobe Illustrator 23.0.6, SVG Export Plug-In . SVG Version: 6.00 Build 0)  -->
<svg version="1.1" xmlns="http://www.w3.org/2000/svg" xmlns:xlink="http://www.w3.org/1999/xlink" x="0px" y="0px"
	 viewBox="0 0 200 200" style="enable-background:new 0 0 200 200;" xml:space="preserve">
<style type="text/css">
	.st0{fill:#7E007C;}
	.st1{fill-rule:evenodd;clip-rule:evenodd;fill:#FFFFFF;}
	.st2{fill-rule:evenodd;clip-rule:evenodd;fill:#7E007E;}
</style>
<g id="Layer_1">
	<g>
		<circle class="st0" cx="99.88" cy="100" r="100"/>
	</g>
</g>
<g id="Layer_2">
	<path class="st1" d="M99.69,13c22.58,14.52,45.17,29.04,67.75,43.56c0,0.06,0,0.12,0,0.18c-45.22,0-90.45,0-135.67,0
		c0.06-0.18,0.12-0.36,0.18-0.53C54.52,41.81,77.11,27.4,99.69,13z"/>
	<path class="st2" d="M97.42,27.22c-3.42,0.78-6.2,3.01-7.34,6.76c-2.33,7.64,4.16,14.51,11.89,12.62
		C112.58,44.01,111.27,26.85,97.42,27.22z"/>
	<path class="st1" d="M98.8,32.03c6.87-0.2,7.28,8.69,1.6,9.96C94.58,43.28,92,34,98.8,32.03z"/>
	<path class="st1" d="M31.77,61.72c5.57,0.06,11.14,0.12,16.71,0.18c0.84,0.5,1.2,1.18,1.6,2.13c-0.17,1.35-0.79,1.83-1.42,2.67
		c-5.1,0.07-14.79,1.26-17.96-1.07c-0.21-0.67-0.51-1.37-0.18-2.13C30.94,62.91,31.35,62.31,31.77,61.72z"/>
	<path class="st1" d="M61.64,61.72c5.51,0.06,11.02,0.12,16.54,0.18c0.93,0.54,1.47,1.31,1.6,2.67c-0.47,0.71-0.95,1.42-1.42,2.13
		c-5.1,0.07-14.79,1.26-17.96-1.07c-0.12-0.59-0.24-1.19-0.36-1.78C60.47,62.85,60.92,62.4,61.64,61.72z"/>
	<path class="st1" d="M120.85,61.72c4.15-0.05,14.66-0.96,17.43,0.53c0.39,0.88,0.76,1.06,0.89,2.31c-0.47,0.71-0.95,1.42-1.42,2.13
		c-4.44,0.06-15.22,0.92-17.78-0.89c-0.12-0.3-0.24-0.59-0.36-0.89C119.18,63.36,120.12,62.63,120.85,61.72z"/>
	<path class="st1" d="M150.54,61.72c5.57,0.06,11.14,0.12,16.71,0.18c0.71,0.34,1.11,0.88,1.42,1.6c0.42,1.56-0.52,2.29-1.24,3.2
		c-4.44,0.06-15.22,0.92-17.78-0.89c-0.33-0.88-0.56-1.39-0.36-2.49C149.71,62.79,150.13,62.25,150.54,61.72z"/>
	<path class="st1" d="M35.32,71.68c3.26,0.06,6.52,0.12,9.78,0.18c-0.06,21.39-0.12,42.8-0.18,64.19c-3.2,0-6.4,0-9.6,0
		C35.32,114.59,35.32,93.13,35.32,71.68z"/>
	<path class="st1" d="M74.8,71.68c0,21.45,0,42.91,0,64.37c-3.32-0.06-6.64-0.12-9.96-0.18c0.06-21.39,0.12-42.8,0.18-64.19
		C68.28,71.68,71.54,71.68,74.8,71.68z"/>
	<path class="st1" d="M124.41,71.68c3.26,0,6.52,0,9.78,0c0,21.45,0,42.91,0,64.37c-3.26,0-6.52,0-9.78,0
		C124.41,114.59,124.41,93.13,124.41,71.68z"/>
	<path class="st1" d="M154.1,71.68c3.26,0,6.52,0,9.78,0c0,21.45,0,42.91,0,64.37c-3.26,0-6.52,0-9.78,0
		C154.1,114.59,154.1,93.13,154.1,71.68z"/>
	<path class="st1" d="M80.17,71.78c13.31,0,26.63,0,39.95,0c0,2.68,0,5.36,0,8.05c-4.79,0.1-9.58,0.19-14.37,0.29
		c1.25,2.5,2.62,4.73,3.45,7.76c3.64,0,7.28,0,10.92,0c0,2.68,0,5.36,0,8.05c-3.64,0-7.28,0-10.92,0
		c-1.91,7.85-7.37,13.05-14.94,15.23c1.56,5.15,14.22,14.99,18.39,18.97c-1.92,1.92-3.83,3.83-5.75,5.75
		c-5.08-5.08-10.15-10.15-15.23-15.23c-4.31-2.58-6.74-6.67-11.49-9.2c0-2.49,0-4.98,0-7.47c9.93,0.25,17.04-0.51,20.4-6.9
		c-0.19-0.29-0.38-0.57-0.57-0.86c-6.61-0.1-13.22-0.19-19.83-0.29c0-2.68,0-5.36,0-8.05c6.99-0.1,13.99-0.19,20.98-0.29
		c-0.19-0.19-0.38-0.38-0.57-0.57c-2.86-6.71-10.74-7.36-20.4-7.18C80.17,77.15,80.17,74.46,80.17,71.78z"/>
	<path class="st1" d="M31.59,141.02c5.14-0.07,14.94-1.28,18.14,1.07c0.12,0.59,0.24,1.19,0.36,1.78c-0.47,0.71-0.95,1.42-1.42,2.13
		c-5.1,0.07-14.79,1.26-17.96-1.07c-0.22-0.68-0.53-1.51-0.18-2.31C30.88,142.09,31.23,141.56,31.59,141.02z"/>
	<path class="st1" d="M61.28,141.02c5.14-0.07,14.94-1.28,18.14,1.07c0.12,0.59,0.24,1.19,0.36,1.78c-0.47,0.71-0.95,1.42-1.42,2.13
		c-5.1,0.07-14.79,1.26-17.96-1.07c-0.22-0.68-0.53-1.51-0.18-2.31C60.57,142.09,60.93,141.56,61.28,141.02z"/>
	<path class="st1" d="M120.85,141.02c5.1-0.07,14.79-1.26,17.96,1.07c0.12,0.59,0.24,1.19,0.36,1.78c-0.47,0.71-0.95,1.42-1.42,2.13
		c-5.1,0.07-14.79,1.26-17.96-1.07c-0.22-0.68-0.53-1.51-0.18-2.31C120.02,142.09,120.43,141.56,120.85,141.02z"/>
	<path class="st1" d="M150.54,141.02c5.1-0.07,14.79-1.26,17.96,1.07c0.21,0.67,0.51,1.37,0.18,2.13c-0.41,0.59-0.83,1.19-1.24,1.78
		c-5.1,0.07-14.79,1.26-17.96-1.07c-0.25-0.83-0.37-1.52-0.18-2.49C149.71,141.97,150.13,141.5,150.54,141.02z"/>
	<path class="st1" d="M35.86,150.98c35.44,0,70.89,0,106.33,0c9.48,0,18.97,0,28.45,0c5.01,1.74,2.86,7.21,0.18,9.6
		c-35.14,0.06-70.3,0.12-105.44,0.18c-9.01-0.06-18.02-0.12-27.03-0.18c-3.57-0.11-9.04,0.75-11.2-0.89
		c-2.86-2.18-1.88-7.75,1.6-8.53C31.11,151.1,33.49,151.04,35.86,150.98z"/>
</g>
</svg>
