<?xml version="1.0" encoding="utf-8"?>
<!-- Generator: Adobe Illustrator 23.0.6, SVG Export Plug-In . SVG Version: 6.00 Build 0)  -->
<svg version="1.1" xmlns="http://www.w3.org/2000/svg" xmlns:xlink="http://www.w3.org/1999/xlink" x="0px" y="0px"
	 viewBox="0 0 200 200" style="enable-background:new 0 0 200 200;" xml:space="preserve">
<style type="text/css">
	.st0{fill:#7E007C;}
	.st1{fill-rule:evenodd;clip-rule:evenodd;fill:#FFFFFF;}
</style>
<g id="Layer_1">
	<g>
		<circle class="st0" cx="99.88" cy="100" r="100"/>
	</g>
</g>
<g id="Layer_2">
	<path class="st1" d="M163.61,123.82c-6.8,0.08-6.3,7.79-9.14,11.88c-0.64,0.92-2.08,1.06-3.2,1.52c-2.64,1.08-6.18,1.66-7.77,3.81
		c-0.51,0.69-1.1,1.75-1.37,2.59c-0.28,0.86-0.33,2.11-0.15,2.89c0.78,3.35,1.96,5.46,4.88,6.55c2.4,0.9,5.05,0.95,7.01,2.29
		c0.93,0.64,1.05,2.24,1.52,3.35c0.76,1.77,1.55,3.97,2.59,5.64c0.32,0.51,0.84,0.74,1.07,1.37c-0.97,0.65-1.51,1.89-2.44,2.59
		c-1.91,1.44-4.04,2.84-6.4,3.81c-6.22,2.57-19.19,1.52-27.88,1.52c-3.35,0-6.7,0-10.06,0c-1.07,0-3.21,0.31-3.96-0.15
		c3.75-0.43,9.13-3.59,11.88-5.33c12.98-8.21,18.05-19.03,22.4-35.8c1.22-4.71,1.07-12.92,0.3-17.98c-0.15-0.99,0.53-2.9,0.15-4.42
		c-2.77-11.12-8.1-18.96-13.86-26.97c-0.81-1.12-1.47-2.23-2.29-3.35c-0.43-0.59-1.36-1.17-1.68-1.83
		c-0.47-0.98-0.14-1.53-0.91-2.13c-0.15-0.04-0.06-0.12-0.15,0c-0.82,1.29-0.51,3.56-0.91,5.18c-0.53,2.09-1.11,4.14-2.13,5.79
		c-5.45,8.83-17.84,13.5-28.64,17.06c-5.3,1.75-11.03,2.54-16.61,3.96c-2.48,0.63-5.07,0.66-7.47,1.22
		c-3.08,0.73-8.31-0.07-9.9,2.13c-1.07,1.49-0.61,3.57-1.07,5.79c-1.03,5-0.05,12.74,1.07,16.91c0.58,2.19,0.7,4.05,1.37,6.09
		c3.63,10.97,9.47,20.09,17.98,26.21c3.87,2.78,8.4,5.76,13.71,7.01c0,0.1,0,0.2,0,0.3c-11.38,0-22.75,0-34.13,0
		c-0.72-0.44-1.97-0.08-2.89-0.3c-1.27-0.3-2.54-0.61-3.81-0.91c-5.66-2.05-10.17-5.61-12.49-10.97
		c-3.05-7.06-1.98-19.34-1.98-29.25c0-10.77,0-21.53,0-32.3c0-3.63-0.54-9.3,0.15-12.49c0.05-1.27,0.1-2.54,0.15-3.81
		c0.8-3.57,0.91-7.21,1.98-10.51c0.79-2.43,1.94-4.89,2.59-7.31c0.12,0.16,0.05,0.04,0.15,0.3c0.65,0.84,0.77,1.99,1.22,3.05
		c1.96,4.64,3.2,10.39,8.53,11.73c2.02,0.51,4.13-0.28,5.33-1.07c0.82-0.53,1.73-1.05,2.29-1.83c0.83-1.15,1.09-2.56,1.68-3.96
		c1.07-2.56,2.26-5.38,3.35-7.92c0.46-1.07,0.66-3.13,1.52-3.81c0.8-0.64,1.89-0.79,2.89-1.22c1.62-0.68,3.52-1.46,5.18-2.13
		c3.16-1.28,6.69-1.57,8.53-4.11c1.83-2.53,1.84-6.77,0-9.29c-1.35-1.86-3.65-2.39-5.94-3.35c-3.53-1.48-7.23-2.94-10.82-4.42
		c0-0.05,0-0.1,0-0.15c2.73-1.23,5.27-3.18,8.08-4.42c3.99-1.76,8.31-2.99,12.8-4.27c10.51-3,25.86-1.43,34.59,1.83
		c18.19,6.8,30.85,18.28,38.39,35.65c1.51,3.48,2.33,7.36,3.35,11.27c0.15,1.32,0.3,2.64,0.46,3.96c1.11,4.58,0.91,10.35,0.91,16
		C163.61,106.15,163.61,114.99,163.61,123.82z"/>
	<path class="st1" d="M52.54,27.23c0.87,0.49,1.52,3.48,1.98,4.57c1.62,3.82,3.08,7.86,4.72,11.73c5.48,2.18,10.97,4.37,16.45,6.55
		c0,0.05,0,0.1,0,0.15c-1.39,0.17-2.66,1.04-3.81,1.52c-2.72,1.15-5.47,2.12-8.08,3.2c-1.11,0.46-4.12,1.07-4.57,1.98
		c-0.82,0.96-1,2.57-1.52,3.81c-1.05,2.47-2.18,5.15-3.2,7.62c-0.63,1.52-0.84,3.52-1.83,4.72c0-0.05,0-0.1,0-0.15
		c-0.72-0.96-0.87-2.33-1.37-3.5c-1.15-2.72-2.36-5.67-3.5-8.38c-0.56-1.33-0.77-3.57-1.83-4.42c-1.29-0.96-3.15-1.18-4.72-1.83
		c-2.32-0.96-4.84-2.09-7.16-3.05c-1.04-0.43-3.83-0.98-4.27-1.83c1.99-0.25,4.08-1.56,5.79-2.29c3.57-1.52,7.15-2.62,10.67-4.11
		c0.16-1.27,0.92-2.45,1.37-3.5c1.11-2.61,1.78-5.15,2.89-7.77C51.22,30.71,52.26,29.06,52.54,27.23z"/>
	<path class="st1" d="M164.22,131.29c0.81,0.45,0.83,1.7,1.22,2.59c0.65,1.5,1.5,3.22,2.13,4.72c0.39,0.93,0.47,2.02,1.07,2.74
		c0.84,0.76,2.23,0.9,3.35,1.37c2.24,0.95,4.58,2.23,7.01,2.89c-0.16,0.12-0.04,0.05-0.3,0.15c-3.4,1.42-6.81,2.84-10.21,4.27
		c-0.25,2.11-2.22,5.56-3.05,7.47c-0.38,0.86-0.4,2.18-1.22,2.59c-0.53-2.59-2.06-5.14-3.05-7.47c-0.4-0.95-0.47-2.15-1.22-2.74
		c-0.76-0.58-1.8-0.66-2.74-1.07c-2.31-1-4.78-2.36-7.31-3.05c0-0.05,0-0.1,0-0.15c0.05,0,0.1,0,0.15,0
		c0.76-0.58,1.8-0.67,2.74-1.07c2.36-1,4.89-2.01,7.31-3.05C161.45,138.46,163.41,134.52,164.22,131.29z"/>
</g>
</svg>
