<?xml version="1.0" encoding="utf-8"?>
<!-- Generator: Adobe Illustrator 23.0.6, SVG Export Plug-In . SVG Version: 6.00 Build 0)  -->
<svg version="1.1" xmlns="http://www.w3.org/2000/svg" xmlns:xlink="http://www.w3.org/1999/xlink" x="0px" y="0px"
	 viewBox="0 0 200 200" style="enable-background:new 0 0 200 200;" xml:space="preserve">
<style type="text/css">
	.st0{fill:#7E007C;}
	.st1{fill-rule:evenodd;clip-rule:evenodd;fill:#FFFFFF;}
	.st2{fill-rule:evenodd;clip-rule:evenodd;fill:#7E007E;}
</style>
<g id="Layer_1">
	<g>
		<circle class="st0" cx="99.88" cy="100" r="100"/>
	</g>
</g>
<g id="Layer_2">
	<path class="st1" d="M99.63,25c18.2-0.29,46.55,32.92,59.94,47.42c5.51,5.96,15.47,11.99,15.66,22.81
		c-0.67,2.72-2.71,3.88-4.47,5.82c-11.35,0.99-15.18-7.58-21.02-13.42c-8.21-8.21-38.88-43.35-49.65-43.84
		c-7.15-0.32-11.38,6.15-18.34,12.53C70.11,67.8,58.47,79.28,46.84,90.76c-5.23,5.23-8.56,12.09-18.79,9.84
		c-2.18-2.83-3.61-4.02-3.58-9.39C30,80.45,41.67,71.33,49.97,63.03C60.11,52.74,70.7,43.79,80.84,33.5
		C85.26,29.45,93.38,25.9,99.63,25z"/>
	<path class="st1" d="M100.08,54.53c8.09,5.99,11.85,8.72,17,13.87c13.72,13.72,27.44,26.54,41.16,40.26
		c0.15,12.11,2.93,49.77-1.79,56.81c-3.8,5.67-14.26,4.47-23.71,4.47c-20.87,0-41.75,0-62.63,0c-8.42,0-21.05,1.54-25.5-2.68
		c-5.78-5.49-3.28-46.38-3.13-59.05C60.63,89.6,79.17,70.63,100.08,54.53z"/>
	<path class="st2" d="M89.34,88.97c0,6.86,0,13.72,0,20.58c-5.92-0.13-16.38-0.1-21.02,0.45c0.15,6.71,0.3,14.76,0.45,21.47
		c6.86,0.15,13.72-0.6,20.58-0.45c0.15,6.86,0.3,13.72,0.45,20.58c6.86-0.15,13.72-0.3,20.58-0.45c0.15-6.86,0.3-13.72,0.45-20.58
		c6.71,0,13.42,0,20.13,0c0-7.01,0-14.02,0-21.02c-6.86,0-13.72,0-20.58,0c0-6.86,0-13.72,0-20.58
		C103.36,88.97,96.35,88.97,89.34,88.97z"/>
</g>
</svg>
