<?xml version="1.0" encoding="utf-8"?>
<!-- Generator: Adobe Illustrator 23.0.6, SVG Export Plug-In . SVG Version: 6.00 Build 0)  -->
<svg version="1.1" xmlns="http://www.w3.org/2000/svg" xmlns:xlink="http://www.w3.org/1999/xlink" x="0px" y="0px"
	 viewBox="0 0 200 200" style="enable-background:new 0 0 200 200;" xml:space="preserve">
<style type="text/css">
	.st0{fill:#7E007C;}
	.st1{fill-rule:evenodd;clip-rule:evenodd;fill:#FFFFFF;}
	.st2{fill-rule:evenodd;clip-rule:evenodd;fill:#7E007E;}
</style>
<g id="Layer_1">
	<g>
		<circle class="st0" cx="99.88" cy="100" r="100"/>
	</g>
</g>
<g id="Layer_6">
	<path class="st1" d="M49.73,95.47c-6.69-0.36-14.71-0.83-20.67-2.23c-4.31-6.79-6.01-16.31-8.66-24.86
		c-1.02-3.31-3-6.73-2.23-10.89c5.33-3.31,11.6-4.74,18.15-6.98c6.92-2.36,14.27-4.93,21.23-7.26c4.2-1.41,8.1-1.96,12.29-3.35
		c4.96-1.64,13.87-5.89,20.11-4.47c8.47-0.09,16.94-0.19,25.42-0.28c10.39,2.57,20.63,5.93,30.44,9.22c8.95,3,17.69,5.46,26.25,8.66
		c1.6,0.6,8.42,2.04,8.94,3.07c2,2.91,2,6.91,0,11.45c-4,12.46-0.84,3.07-1.4,4.75c-1.48,4.45-2.86,9.52-4.47,13.96
		c-0.92,2.54-0.82,5.83-3.35,6.7c-1.4,1.22-3.32,0.61-5.59,1.12c-4.53,1-10.43,0.68-14.8,1.68c0,0.19,0,0.37,0,0.56
		c-0.57,0.91-0.31,3.34-0.28,4.75c0.07,3.42,0.28,7.61,0.28,11.45c0.19,14.8,0.37,29.61,0.56,44.41c0,6.15,1.48,13.99-1.96,17.32
		c-2.88,2.79-14.88,1.68-20.67,1.68c-18.99,0-37.99,0-56.98,0c-6.85,0-19.45,1.66-22.34-2.51c-2.82-4.07-1.12-16.03-1.12-22.34
		C49.17,132.53,49.45,114,49.73,95.47z"/>
	<path class="st2" d="M80.45,44.92c0.38,2.61,2.35,4.14,3.63,5.87c2.8,3.75,10.61,9.46,18.71,7.54c7.46-1.77,15.49-6.58,17.32-13.69
		c-7.54,0-15.08,0-22.62,0c-0.97,0.61-3.55,0.28-5.03,0.28C88.46,44.92,84.46,44.92,80.45,44.92z"/>
</g>
</svg>
