<?xml version="1.0" encoding="utf-8"?>
<!-- Generator: Adobe Illustrator 23.0.6, SVG Export Plug-In . SVG Version: 6.00 Build 0)  -->
<svg version="1.1" xmlns="http://www.w3.org/2000/svg" xmlns:xlink="http://www.w3.org/1999/xlink" x="0px" y="0px"
	 viewBox="0 0 200 200" style="enable-background:new 0 0 200 200;" xml:space="preserve">
<style type="text/css">
	.st0{fill:#7E007C;}
	.st1{fill-rule:evenodd;clip-rule:evenodd;fill:#FFFFFF;}
</style>
<g id="Layer_1">
	<g>
		<circle class="st0" cx="99.88" cy="100" r="100"/>
	</g>
</g>
<g id="Layer_2">
	<path class="st1" d="M100.33,50.2c8.98-0.2,16.12,4.97,22.95,7.8c15.3,6.01,30.6,12.03,45.89,18.04
		c5.01,2.06,19.05,5.82,19.83,11.14c-1.49,2.82-4.88,3.76-7.57,5.35c0,9.88,0,19.75,0,29.63c2.08,2.08,4.16,4.16,6.24,6.24
		c-0.97,0.97-1.93,1.93-2.9,2.9c-3.34,3.56-6.68,7.13-10.03,10.69c-4.31-4.31-8.61-8.61-12.92-12.92c0.59-0.74,1.19-1.49,1.78-2.23
		c2.3-2.08,4.6-4.16,6.91-6.24c0-7.8,0-15.6,0-23.39c-16.19,6.68-32.38,13.37-48.57,20.05c-6.73,2.84-14.5,9.17-24.95,7.35
		c-6.9-1.2-12.81-4.13-18.71-6.46c-10.82-4.28-21.63-8.08-32.08-12.48c-9.5-4-19.33-7.27-27.85-12.25
		c-3.02-1.77-7.14-2.81-7.35-7.35c2.88-6.12,17.4-9.32,24.28-12.03c18.79-7.2,37.58-14.41,56.36-21.61
		C94.54,51.68,97.44,50.94,100.33,50.2z"/>
	<path class="st1" d="M148.68,117.48c0.07,6.76,0.15,13.52,0.22,20.27c-9.71,7.35-18.82,13.87-32.97,17.15
		c-23.74,5.51-56.32-4.29-66.17-17.38c0-5.64,0-11.29,0-16.93c10.63,4.28,21.8,7.66,32.97,11.58c5.71,2.01,13.2,5.41,21.83,4.01
		c12.12-1.97,21.18-8.52,31.19-12.92C140.06,121.34,144.37,119.41,148.68,117.48z"/>
</g>
</svg>
