<?xml version="1.0" encoding="utf-8"?>
<!-- Generator: Adobe Illustrator 23.0.6, SVG Export Plug-In . SVG Version: 6.00 Build 0)  -->
<svg version="1.1" xmlns="http://www.w3.org/2000/svg" xmlns:xlink="http://www.w3.org/1999/xlink" x="0px" y="0px"
	 viewBox="0 0 200 200" style="enable-background:new 0 0 200 200;" xml:space="preserve">
<style type="text/css">
	.st0{fill:#7E007C;}
	.st1{fill-rule:evenodd;clip-rule:evenodd;fill:#FFFFFF;}
</style>
<g id="Layer_1">
	<g>
		<circle class="st0" cx="99.88" cy="100" r="100"/>
	</g>
</g>
<g id="Layer_2">
	<path class="st1" d="M176.43,60c0.3,1.7,1.53,2.93,2.15,4.3c1.82,4.01,3.29,8.25,4.78,12.43c1.42,3.99,1.87,8.47,2.87,12.67
		c0.08,1.59,0.16,3.19,0.24,4.78c0.26,1.18,0.41,3.64,0.24,4.54c0,1.51,0,3.03,0,4.54c-0.58,2.75-1.13,5.75-1.43,8.36
		c-5.27-0.07-12.36-0.37-17.21,0.72c-1.59,0-3.19,0-4.78,0c-1.77,0.27-4.31,0.34-5.97,0.72c-1.83,0.08-3.66,0.16-5.5,0.24
		c-6.54,1.5-13.79,1.72-19.83,3.35c-4.5,1.21-8.46,1.47-12.67,2.87c-7.81,2.63-15.61,5.26-23.42,7.89c-1.98,0.6-3.41,0.41-5.5,0.96
		c-3.5,0.92-11.46,2.1-15.53,1.19c-1.27,0-2.55,0-3.82,0c-3.48,0-7.14,0.17-10.04-0.48c-1.27,0-2.55,0-3.82,0
		c-3.04-0.69-6.35-0.19-9.56-0.96c-8.58-2.04-17.36-2.75-24.85-5.5c-2.26-0.83-9.8-2.57-10.28-4.54c0.82-1.01,0.96-2.44,1.67-3.58
		c2.25-3.62,6.28-6.51,10.75-7.89c11.33-3.48,28.8,1.25,39.43-3.11c5.1-2.09,9-5.95,13.14-9.08c1.74-1.31,3.96-5.01,6.21-5.5
		c0.86,1.34,2.91,2.23,3.58,3.58c0.79,1.58-0.06,2.48,1.67,3.11c1.92,1.58,4.01-0.79,4.06-2.87c-0.32-0.56-0.64-1.12-0.96-1.67
		c-0.77-0.63-1.61-0.21-2.63-0.72c-0.58-0.29-3.34-3.37-3.58-4.06c1.76-1.19,2.98-4.07,5.26-4.54c0.85,1.33,2.93,2.24,3.58,3.58
		c0.79,1.64-0.09,2.47,1.67,3.11c0.76,0.6,1.26,0.34,2.39,0.24c0.95-1.22,1.48-1.39,1.43-3.82c-0.43-0.31-0.55-0.91-0.96-1.19
		c-0.71-0.49-1.49-0.04-2.39-0.48c-0.65-0.32-3.41-3.44-3.58-4.3c2.08-1.08,2.94-3.53,5.26-4.3c0.91,1.42,3.13,2.38,3.82,3.82
		c0.73,1.52-0.19,2.26,1.43,2.87c0.82,0.79,2.19,0.4,3.11,0c0.58-0.98,0.95-1.42,0.96-3.11c-0.4-0.56-0.8-1.12-1.2-1.67
		c-0.72-0.08-1.43-0.16-2.15-0.24c-0.65-0.31-3.41-3.44-3.58-4.3c1.98-1.03,3.2-3.51,5.73-3.82c0.9,1.41,3.14,2.39,3.82,3.82
		c0.8,1.68-0.38,2.37,1.67,3.11c1.73,1.2,3.13-0.73,3.82-1.43c0-0.64,0-1.27,0-1.91c-0.76-0.76-0.98-1.51-2.15-1.91
		c-0.4,0-0.8,0-1.19,0c-1.19-1.27-2.39-2.55-3.58-3.82c3.03-1.5,10.25-6.18,15.06-3.35c3.03,1.79,3.77,6.19,5.74,9.08
		c2.29,3.37,6.45,5.08,10.99,6.21c1.51,0.08,3.03,0.16,4.54,0.24c0.96,0.21,3.21,0.54,4.54,0.24c8.64-1.96,11.62-9.34,17.68-13.86
		C170.06,62.7,172.29,60.14,176.43,60z"/>
	<path class="st1" d="M186.95,114.25c0.04,7.17,0.87,16.14-0.48,22.46c-3.47,1.68-11.02,0.72-15.77,0.72c-12.27,0-24.54,0-36.8,0
		c-0.24-0.19-0.07-0.08-0.48-0.24c-1.48-2.54-0.98-7.95-0.96-11.95c-4.48,0.43-9.31,2.18-13.14,3.58
		c-8.33,3.06-16.64,5.51-25.33,7.89c-6.76,1.85-14.89,1.44-22.7,1.43c-13.51-0.01-27.58-0.98-38.48-4.06
		c-2.86-0.81-5.37-0.77-8.12-1.67c-4-1.31-8.29-2.74-11.95-4.3c-1.99-0.85-5.3-1.21-5.74-3.58c0.72-1.27,1.43-2.55,2.15-3.82
		c2.44-0.2,4.17,1.3,6.21,2.15c3.58,1.19,7.17,2.39,10.75,3.58c7.75,2.5,16.41,2.68,24.85,4.54c2.93,0.65,5.88,0.13,8.6,0.72
		c1.43,0,2.87,0,4.3,0c3.84,0.8,8.53,0.48,12.9,0.48c1.51,0,3.03,0,4.54,0c5.54-1.23,11.06-1.01,16.01-2.63
		c11.43-3.74,22.62-7.48,34.89-10.75c3.28-0.88,6.14-0.63,9.56-1.43C154.64,114.33,171.51,114.31,186.95,114.25z"/>
</g>
</svg>
