<?xml version="1.0" encoding="utf-8"?>
<!-- Generator: Adobe Illustrator 23.0.6, SVG Export Plug-In . SVG Version: 6.00 Build 0)  -->
<svg version="1.1" xmlns="http://www.w3.org/2000/svg" xmlns:xlink="http://www.w3.org/1999/xlink" x="0px" y="0px"
	 viewBox="0 0 200 200" style="enable-background:new 0 0 200 200;" xml:space="preserve">
<style type="text/css">
	.st0{fill:#7E007C;}
	.st1{fill-rule:evenodd;clip-rule:evenodd;fill:#FFFFFF;}
	.st2{fill-rule:evenodd;clip-rule:evenodd;fill:#7E007E;}
</style>
<g id="Layer_1">
	<g>
		<circle class="st0" cx="99.88" cy="100" r="100"/>
	</g>
</g>
<g id="Layer_2">
	<path class="st1" d="M55.98,161.31c0-30.84,0-61.69,0-92.53c0.21-14.55-1.37-28.75,3.59-33.15c3.58-3.17,13.61-2.49,18.51-2.49
		c12.06,0,24.12,0,36.18,0c5.62,0,10.2-0.8,14.09,0.28c3.04,0.74,4.33,2.85,4.42,2.76c3.35,4.41,2.89,18.89,2.76,35.63
		c0.09,29.74,0.18,59.48,0.28,89.22c3.96,0,7.92,0,11.88,0c0.28,0.46,0.55,0.92,0.83,1.38c1.24,2.42,0.6,8.76,0,11.6
		c-0.28,0.09-0.55,0.18-0.83,0.28c-34.8,0-69.61,0-104.41,0c-0.09-0.28-0.18-0.55-0.28-0.83c0-3.87,0-7.73,0-11.6
		c0.28-0.09,0.55-0.18,0.83-0.28C46.96,160.27,52.34,161.17,55.98,161.31z"/>
	<path class="st1" d="M155.69,41.71c1.56,0.28,3.13,0.55,4.7,0.83c1.23,0.93,12.15,16.3,12.15,16.3c-0.28,1.52,3.14,2.32,2.21,3.59
		c1.66,1.93,3.31,3.87,4.97,5.8c0,12.89,0,25.78,0,38.67c0.09,1.84,0.18,3.68,0.28,5.52c-2.12,12.63,2.53,18.02-7.73,24.58
		c-2.21,1.42-5.96,3.46-10.22,2.49c-4.08-0.93-8.64-2.8-10.5-5.8c-0.59-0.95-3.04-6.63-3.04-6.63c-1.69-6.08,2.7-16.08-0.55-20.72
		c-0.95-2.09-3.81-2.55-8.01-2.49c-0.27-2.49-0.61-7.18,0.28-9.11c11.67,0.11,13.82,3.15,17.68,10.5c-0.09,1.47-0.18,2.95-0.28,4.42
		c0.41,7.11-1.44,15.93,3.31,19.61c1.08,0.13,2.34,0.82,4.7,0.83c1.89-1.12,4.16-2.57,4.97-4.7c0-14.45,0-28.91,0-43.36
		c-6.18-0.8-8.41-4.24-8.56-11.05c-0.09-1.1-0.18-2.21-0.28-3.31c0.63-1.72,2.51-3.22,2.21-4.42c-1.77-3.5-12.55-13.79-10.77-18.78
		C153.81,43,154.62,42.64,155.69,41.71z"/>
	<path class="st2" d="M71.45,50.82C70,54,69.24,84.6,70.07,90.04C89,91,79,91,94.93,90.32c11.07-0.47,16.07-0.32,26.52-0.28
		c2.04-4.69,1.15-32.66,0.28-38.39c-3.78-1.57-9.66-0.07-14.64-0.55C95.2,51.01,83.33,50.91,71.45,50.82z"/>
</g>
</svg>
