<?xml version="1.0" encoding="utf-8"?>
<!-- Generator: Adobe Illustrator 23.0.6, SVG Export Plug-In . SVG Version: 6.00 Build 0)  -->
<svg version="1.1" xmlns="http://www.w3.org/2000/svg" xmlns:xlink="http://www.w3.org/1999/xlink" x="0px" y="0px"
	 viewBox="0 0 200 200" style="enable-background:new 0 0 200 200;" xml:space="preserve">
<style type="text/css">
	.st0{fill:#7E007C;}
	.st1{fill-rule:evenodd;clip-rule:evenodd;fill:#FFFFFF;}
	.st2{fill-rule:evenodd;clip-rule:evenodd;fill:#7E007E;}
</style>
<g id="Layer_1">
	<g>
		<circle class="st0" cx="99.88" cy="100" r="100"/>
	</g>
</g>
<g id="Layer_2">
	<path class="st1" d="M102.64,72.28c0.14-1.87,0.7-4.25-0.28-5.5c-0.28,1.83-0.55,3.67-0.83,5.5c-1.74,0-3.49,0-5.23,0
		c0.32-15.98-4.28-29.19-12.66-36.61c-0.09,0-0.18,0-0.28,0c-0.73,1.28-1.47,2.57-2.2,3.85c4.96,1.22,11.55,14.95,8.81,23.67
		c-0.92,2.92-2.32,6.32-3.3,9.08c-5.69,0-11.38,0-17.07,0c-5.78-6.33-11.56-12.66-17.34-18.99c0.01-8.67,6.58-14.99,13.21-17.07
		c3.94-1.23,9.13,0.57,12.11,0.83c1.05-5.11,6.91-8.18,10.46-11.01c0.64,0.09,1.28,0.18,1.93,0.28c0.28,0.83,0.55,1.65,0.83,2.48
		c-0.09,0.28-0.18,0.55-0.28,0.83c-0.92,0.55-1.84,1.1-2.75,1.65c0.18,0.28,0.37,0.55,0.55,0.83c3.67,0.67,6.3,4.33,8.53,6.61
		c-0.08-4.24,1.89-7.8,3.85-10.18c-0.64-0.46-1.28-0.92-1.93-1.38c0.09-1.1,0.18-2.2,0.28-3.3c9.27,0,18.53,0,27.8,0
		c2.67,0,8.62-0.82,10.18,0.55c0.09,1.01,0.18,2.02,0.28,3.03c-0.55,0.28-1.1,0.55-1.65,0.83c0.83,2.2,1.65,4.4,2.48,6.61
		c0,10.55,0,21.1,0,31.65c-2.75,0.94-4.2,4.1-6.33,5.78C122.09,72.28,112.37,72.28,102.64,72.28z"/>
	<path class="st2" d="M100.72,43.1c0.55,3.39,1.1,6.79,1.65,10.18c0.18-0.09,0.37-0.18,0.55-0.28c-0.18-3.3-0.37-6.61-0.55-9.91
		C101.82,43.1,101.27,43.1,100.72,43.1z"/>
	<path class="st1" d="M33.83,47.78c4.44-1.03,6.72,0.54,8.81,2.48c8.99,9.82,17.98,19.64,26.97,29.45
		c2.22,3.37,2.24,9.71-0.83,12.11c-6.86,5.37-12.48-3.01-15.69-6.61c-5.8-6.48-11.74-13.36-17.89-19.54
		c-2.33-2.34-7.09-5.95-6.33-11.01C29.39,51.27,30.76,49.2,33.83,47.78z"/>
	<path class="st1" d="M163.75,47.78c7.11-2.41,12.35,5.31,8.53,12.39c-8.99,9.82-17.98,19.64-26.97,29.45
		c-2.27,2.27-6.82,5.23-11.01,3.03c-4.49-2.36-4.4-10.42-1.1-14.04C142.99,67.88,160.77,48.85,163.75,47.78z"/>
	<path class="st1" d="M126.59,77.78c-0.22,3.36-2.39,6.03-1.38,10.18c1.66,6.82,9.06,13.8,18.72,9.36
		c6.87-3.16,13.16-14.4,18.99-19.54c9.87-0.23,13.13,1.18,17.07,6.61c0.3,10.28-4.26,13.5-14.31,13.21c0,0.09,0,0.18,0,0.28
		c-0.57,3.13-2.44,15.84-3.25,20.28c-2.56,14.02-5.32,28.09-8.03,42.75c-1.63,8.85-0.77,15.67-7.16,20.09c-30.92,0-61.57,0-92.48,0
		c-1.97-1.17-3.86-2.93-4.68-5.23c-0.28-2.48-0.55-4.95-0.83-7.43c-1.22-8.17-3.29-16.13-4.68-23.4c-0.95-4.96-1.29-7.6-2.2-12.11
		c-1.3-6.44-2.2-10.03-3.03-15.69c-0.37-1.93-0.83-5.41-1.46-8.61c-0.46-2.94-1.03-6.36-1.85-10.93c-7.52,0.22-10.18-1.43-13.21-5.5
		c-1.65-2.34-1.72-6.68,0-9.08c2.15-3.28,5.44-5.36,16.24-5.23c4.88,6.66,25.56,32.42,36.06,14.86c3.03-5.07-0.58-10.35,0.28-14.86
		C92.46,77.78,109.53,77.78,126.59,77.78z"/>
	<path class="st2" d="M64.38,161.18c2.48,0,4.95,0,7.43,0c0.09-15.41,0.18-30.83,0.28-46.24c-0.09-0.09-0.18-0.18-0.28-0.28
		c-2.28-0.09-6.36-0.46-7.71,0.55C64.2,130.54,64.29,145.86,64.38,161.18z"/>
	<path class="st2" d="M85.85,114.67c0,15.5,0,31.01,0,46.52c2.48,0,4.95,0,7.43,0c0-15.5,0-31.01,0-46.52
		C90.81,114.67,88.33,114.67,85.85,114.67z"/>
	<path class="st2" d="M108.7,161.18c2.39,0,4.77,0,7.16,0c0.09-15.32,0.18-30.65,0.28-45.97c-0.09-0.18-0.18-0.37-0.28-0.55
		c-2.48,0.09-4.95,0.18-7.43,0.28C108.51,130.35,108.61,145.77,108.7,161.18z"/>
	<path class="st2" d="M129.89,114.67c0,15.5,0,31.01,0,46.52c2.57,0,5.14,0,7.71,0c0-15.5,0-31.01,0-46.52
		C135.03,114.67,132.46,114.67,129.89,114.67z"/>
</g>
</svg>
