<?xml version="1.0" encoding="utf-8"?>
<!-- Generator: Adobe Illustrator 23.0.6, SVG Export Plug-In . SVG Version: 6.00 Build 0)  -->
<svg version="1.1" xmlns="http://www.w3.org/2000/svg" xmlns:xlink="http://www.w3.org/1999/xlink" x="0px" y="0px"
	 viewBox="0 0 200 200" style="enable-background:new 0 0 200 200;" xml:space="preserve">
<style type="text/css">
	.st0{fill:#7E007C;}
	.st1{fill-rule:evenodd;clip-rule:evenodd;fill:#FFFFFF;}
</style>
<g id="Layer_1">
	<g>
		<circle class="st0" cx="99.88" cy="100" r="100"/>
	</g>
</g>
<g id="Layer_2">
	<path class="st1" d="M44.97,52c6.15,0.01,10.22,2.28,12.56,6.05c3.24,5.23,1.86,17,1.86,25.11c0,13.8,0,27.59,0,41.39
		c0,14.46,0.99,25.12-10.7,27.9c-2.75,0.65-5.5-0.65-6.98-1.4c-9.48-4.78-7.44-12.93-7.44-26.51c0-15.19,0-30.38,0-45.57
		c0-5.39-1.51-14.71,0.47-19.07C37.03,54.87,40.82,52.65,44.97,52z"/>
	<path class="st1" d="M150.54,52c5.95,0.01,10.31,2.38,12.56,6.05c3.03,4.94,1.4,17.29,1.4,24.65c0,15.03,0,30.07,0,45.11
		c0,6.75,0.92,15.43-1.86,19.53c-1.58,2.33-5.26,4.37-8.37,5.12c-3.37,0.81-6.24-0.87-7.91-1.86c-8.43-5.03-6.51-13.2-6.51-26.04
		c0-15.03,0-30.07,0-45.11c0-6.32-1.21-15.73,0.93-20.46C142.74,54.64,145.86,52.83,150.54,52z"/>
	<path class="st1" d="M29.16,133.38c-5.59-0.11-9.77-4.15-11.16-8.37c-0.57-1.73-0.09-4.18-0.93-5.58c-2.81,2.03-6.8-0.82-7.44-2.79
		C7.35,113.67,8.58,93.9,9.17,89.2c1.33-3.15,4.15-5.66,8.37-4.19c-0.14-8.57,4.55-12.59,11.63-13.95
		C29.16,91.84,29.16,112.61,29.16,133.38z"/>
	<path class="st1" d="M170.07,133.38c0-20.77,0-41.55,0-62.32c0.15,0,1.89-0.37,4.19,0.46c1.55,0.68,2.66,1.14,4.65,4.19
		c1.29,1.98,1.52,5.56,1.86,8.84c0.88-0.64,3.21-0.63,5.58,0.46c1.65,1.01,2.28,2.11,3.72,4.65c1.37,8.96,1.1,17.43,0,25.58
		c-0.72,2.17-5.25,5.45-8.84,4.19C181.43,127.25,177.29,133.19,170.07,133.38z"/>
	<path class="st1" d="M64.51,89.67c23.25,0,46.51,0,69.76,0c0,8.37,0,16.74,0,25.11c-23.25,0-46.51,0-69.76,0
		C64.51,106.41,64.51,98.04,64.51,89.67z"/>
</g>
</svg>
