<?xml version="1.0" encoding="utf-8"?>
<!-- Generator: Adobe Illustrator 23.0.6, SVG Export Plug-In . SVG Version: 6.00 Build 0)  -->
<svg version="1.1" xmlns="http://www.w3.org/2000/svg" xmlns:xlink="http://www.w3.org/1999/xlink" x="0px" y="0px"
	 viewBox="0 0 200 200" style="enable-background:new 0 0 200 200;" xml:space="preserve">
<style type="text/css">
	.st0{fill:#7E007C;}
	.st1{fill-rule:evenodd;clip-rule:evenodd;fill:#FFFFFF;}
	.st2{fill-rule:evenodd;clip-rule:evenodd;fill:#7E007E;}
</style>
<g id="Layer_1">
	<g>
		<circle class="st0" cx="99.88" cy="100" r="100"/>
	</g>
</g>
<g id="Layer_2">
	<path class="st1" d="M62,28c22,0,41,17,34.69,40.48c23.43,23.23,46.87,46.46,70.3,69.69c6.05,8.41,4.83,22.65-3.08,28.37
		c-5.8,4.19-17.71,5.17-24.05,0.62c-23.84-24.05-47.69-48.1-71.54-72.15C44.77,99.95,22.81,75.86,32,52l1-2
		c2,2,17.09,18.89,19.29,20.33C54.07,71.5,58,73,61,70c3.15-2.98,7-6,10.4-9.54C75.52,56.18,71.22,50.23,69,48c-3.86-3.88-6-6-17-17
		C55,29,59,28,62,28z"/>
	<path class="st1" d="M150.96,29.01c13.8-0.25,25.86,9.49,19.12,24.05c-1.71,3.7-5.86,6.48-8.63,9.25
		c-6.99,6.99-13.66,14.31-20.97,20.97C132,91,141,83,129.37,93.14c-1.55-2.3-3.92-3.33-4.93-6.17C135,77,127,85,133.69,78.34
		c6.8-6.77,13.57-13.57,20.35-20.35c2.95-2.95,8.03-5.36,8.63-10.48c-0.99-0.34-1.48-0.49-3.08-0.62c-4.59,5.11-5.8,5.8-8.63,8.63
		c-6.37,6.37-12.55,12.95-19.12,19.12C124,82,127,79,120.74,84.51c-1.7-2.49-1.74-3.51-4.93-6.78c5.2-4.73,5.8-5.8,8.63-8.63
		c6.17-6.17,12.33-12.33,18.5-18.5c3.38-3.38,8.06-6.59,11.1-11.72c-1.41-0.76-1.39-1.01-3.7-1.23
		c-12.54,12.74-25.08,25.49-37.62,38.23c-0.21,0-0.41,0-0.62,0c0-0.21,0-0.41,0-0.62C111,73,109,72,107.17,69.09
		C112,65,112,65,119.5,56.76c8.22-9.02,15.14-16.18,23.43-23.43C145.2,31.35,148,30,150.96,29.01z"/>
	<path class="st1" d="M77.57,114.11c3.78,1.31,5.51,5.29,8.63,7.4c0,0.41,0,0.82,0,1.23c-4.07,2.63-21.26,19.05-21.58,24.05
		c-0.62,1.2-1.18,3.82-1.23,6.17C56.42,157,50,162,35.63,170.23C31,165,35,170,30.08,162.83C42,148,43,144,47.97,137.55
		c3.03-0.55,5.74-0.44,8.63-1.85C63.59,128.5,70.58,121.31,77.57,114.11z"/>
	<path class="st2" d="M150,142c-2.72,1.14-4.56,1.59-7,5c-1.56,2.59-1,7,0.56,9.66c1.44,2.34,3.44,3.34,5.55,4.32
		c5.89,0.02,4.89,0.02,8.63-1.23c3.26-2.75,3.26-3.75,3.7-4.93c0.56-4.81,0.56-6.81-1.23-9.25C156.91,143.42,155.9,141.99,150,142z"
		/>
</g>
</svg>
