<?xml version="1.0" encoding="utf-8"?>
<!-- Generator: Adobe Illustrator 23.0.6, SVG Export Plug-In . SVG Version: 6.00 Build 0)  -->
<svg version="1.1" xmlns="http://www.w3.org/2000/svg" xmlns:xlink="http://www.w3.org/1999/xlink" x="0px" y="0px"
	 viewBox="0 0 200 200" style="enable-background:new 0 0 200 200;" xml:space="preserve">
<style type="text/css">
	.st0{fill:#7E007C;}
	.st1{fill-rule:evenodd;clip-rule:evenodd;fill:#FFFFFF;}
	.st2{fill-rule:evenodd;clip-rule:evenodd;fill:#7E007E;}
</style>
<g id="Layer_1">
	<g>
		<circle class="st0" cx="99.88" cy="100" r="100"/>
	</g>
</g>
<g id="Layer_2">
	<path class="st1" d="M128.48,69.4c15.78,0.05,31.56,0.11,47.34,0.16c0.64,0.69,1.27,1.38,1.91,2.07
		c0.05,20.54,0.11,41.1,0.16,61.64c0,3.76,0.59,19.36-0.95,20.65c-1.5,1.26-6.37,0.64-8.9,0.64c-7.41,0.05-14.83,0.11-22.24,0.16
		c-29.49,0-59,0-88.49,0c-8.42-0.05-16.84-0.11-25.26-0.16c-2.77,0-7.94,0.63-9.06-1.11c-1.59-2.52-0.79-18.03-0.79-22.72
		c0.05-19.75,0.11-39.51,0.16-59.26c0.69-0.64,1.38-1.27,2.07-1.91c15.73-0.05,31.46-0.11,47.18-0.16c0-8.31,0-16.63,0-24.94
		c0-2.6-0.38-7.53,1.27-8.58c1.96-1.71,9.6-0.29,13.03-0.79c9.69,0,19.38,0,29.07,0c4.34,0.65,9.19-0.45,12.55,0.79
		c1.3,2.82,0.95,7.75,0.95,11.76C128.48,54.89,128.48,62.15,128.48,69.4z"/>
	<path class="st2" d="M97.5,44.94c-1.43,0.37-2.86,0.74-4.29,1.11c-5.2,2.16-9.45,6.72-11.12,12.39
		c-3.88,13.13,8.44,25.77,21.76,23.04c10.07-2.07,18.31-13.71,13.03-25.9C113.88,48.65,107.72,44.82,97.5,44.94z"/>
	<path class="st1" d="M95.44,51.45c3.07,0,6.14,0,9.21,0c0.05,2.38,0.11,4.77,0.16,7.15c2.38,0.05,4.77,0.11,7.15,0.16
		c0,3.07,0,6.14,0,9.21c-2.44,0-4.87,0-7.31,0c0,2.44,0,4.87,0,7.31c-3.07,0-6.14,0-9.21,0c0-2.44,0-4.87,0-7.31
		c-2.44,0-4.87,0-7.31,0c0-3.07,0-6.14,0-9.21c2.38-0.05,4.77-0.11,7.15-0.16C95.33,56.22,95.38,53.84,95.44,51.45z"/>
	<path class="st2" d="M30.78,92.92c4.98,0,9.96,0,14.93,0c0-4.92,0-9.85,0-14.77c-4.92,0.05-9.85,0.11-14.77,0.16
		C30.88,83.17,30.83,88.05,30.78,92.92z"/>
	<path class="st2" d="M55.4,92.92c4.98,0,9.96,0,14.93,0c0-4.92,0-9.85,0-14.77c-4.87,0.05-9.74,0.11-14.62,0.16
		C55.61,83.17,55.51,88.05,55.4,92.92z"/>
	<path class="st2" d="M129.75,78.14c0,4.92,0,9.85,0,14.77c4.98,0,9.96,0,14.93,0c-0.11-4.92-0.21-9.85-0.32-14.77
		C139.5,78.14,134.62,78.14,129.75,78.14z"/>
	<path class="st2" d="M154.38,78.14c0,4.92,0,9.85,0,14.77c4.98,0,9.96,0,14.93,0c-0.05-4.92-0.11-9.85-0.16-14.77
		C164.23,78.14,159.3,78.14,154.38,78.14z"/>
	<path class="st2" d="M30.94,102.93c-0.05,4.92-0.11,9.85-0.16,14.77c4.98,0,9.96,0,14.93,0c0-4.98,0-9.96,0-14.93
		C40.79,102.82,35.86,102.87,30.94,102.93z"/>
	<path class="st2" d="M55.4,117.7c4.98,0,9.96,0,14.93,0c0-4.98,0-9.96,0-14.93c-4.98,0.05-9.96,0.11-14.93,0.16
		C55.4,107.85,55.4,112.78,55.4,117.7z"/>
	<path class="st2" d="M129.75,102.77c0,4.98,0,9.96,0,14.93c4.98,0,9.96,0,14.93,0c-0.05-4.92-0.11-9.85-0.16-14.77
		C139.6,102.87,134.68,102.82,129.75,102.77z"/>
	<path class="st2" d="M154.38,102.77c0,4.98,0,9.96,0,14.93c4.98,0,9.96,0,14.93,0c-0.05-4.92-0.11-9.85-0.16-14.77
		C164.23,102.87,159.3,102.82,154.38,102.77z"/>
	<path class="st2" d="M89.08,142.48c7.31,0,14.62,0,21.92,0c-0.05-7.3,0.05-4.18,0-11.48c0-15,0-18-11-18
		C88.06,113,89,117,89.08,142.48z"/>
	<path class="st2" d="M30.78,127.55c0,4.98,0,9.96,0,14.93c4.98,0,9.96,0,14.93,0c0-4.98,0-9.96,0-14.93
		C40.73,127.55,35.75,127.55,30.78,127.55z"/>
	<path class="st2" d="M55.4,127.55c0,4.98,0,9.96,0,14.93c4.98,0,9.96,0,14.93,0c0-4.98,0-9.96,0-14.93
		C65.36,127.55,60.38,127.55,55.4,127.55z"/>
	<path class="st2" d="M129.75,127.55c0,4.98,0,9.96,0,14.93c4.98,0,9.96,0,14.93,0c0-4.98,0-9.96,0-14.93
		C139.71,127.55,134.73,127.55,129.75,127.55z"/>
	<path class="st2" d="M154.38,127.55c0,4.98,0,9.96,0,14.93c4.98,0,9.96,0,14.93,0c-0.05-4.92-0.11-9.85-0.16-14.77
		C164.23,127.66,159.3,127.6,154.38,127.55z"/>
</g>
</svg>
