<?xml version="1.0" encoding="utf-8"?>
<!-- Generator: Adobe Illustrator 23.0.6, SVG Export Plug-In . SVG Version: 6.00 Build 0)  -->
<svg version="1.1" xmlns="http://www.w3.org/2000/svg" xmlns:xlink="http://www.w3.org/1999/xlink" x="0px" y="0px"
	 viewBox="0 0 200 200" style="enable-background:new 0 0 200 200;" xml:space="preserve">
<style type="text/css">
	.st0{fill:#7E007C;}
	.st1{fill-rule:evenodd;clip-rule:evenodd;fill:#FFFFFF;}
	.st2{fill-rule:evenodd;clip-rule:evenodd;fill:#7E007E;}
</style>
<g id="Layer_1">
	<g>
		<circle class="st0" cx="99.88" cy="100" r="100"/>
	</g>
</g>
<g id="Layer_2">
	<path class="st1" d="M45.13,33.62c37.18,0.35,74.37,0.7,111.55,1.05C167.78,47.18,179.89,61.49,191,74
		c-14,19.8-60.13,76.02-69.05,87.65c-2.83,3.7-16.76,21.9-21.75,27.01c-22.68-28.53-47.82-59.52-70.51-88.04
		c-0.94-1.29-1.87-2.57-2.81-3.86C19.59,87.86,11.22,77.42,9,74.31C20.57,61.33,33.56,46.6,45.13,33.62z"/>
	<path class="st2" d="M53.55,41.34c3.27,8.77,6.55,17.54,9.82,26.31c9.12-8.77,18.24-17.54,27.36-26.31
		C78.34,41.34,65.94,41.34,53.55,41.34z"/>
	<path class="st2" d="M109.67,41.34c9.12,8.77,18.24,17.54,27.36,26.31c3.62-8.65,7.25-17.31,10.87-25.96
		C135.16,41.57,122.42,41.45,109.67,41.34z"/>
	<path class="st2" d="M99.85,43.44c-9.59,8.89-19.18,17.77-28.76,26.66c19.06,0,38.12,0,57.18,0
		C118.79,61.21,109.32,52.33,99.85,43.44z"/>
	<path class="st2" d="M45.48,44.49c-7.37,8.42-14.73,16.84-22.1,25.26C34.25,69.87,45.13,69.98,56,70.1
		C52.5,61.56,48.99,53.03,45.48,44.49z"/>
	<path class="st2" d="M154.92,45.19c-3.51,8.42-7.02,16.84-10.52,25.26c10.99-0.23,21.98-0.47,32.97-0.7c0-0.12,0-0.23,0-0.35
		C169.89,61.33,162.4,53.26,154.92,45.19z"/>
	<path class="st2" d="M26.89,77.82c-3.27,0.23-6.2-0.23-6.66,0.35c21.86,27.01,47.59,57.53,69.45,84.54
		c-9.7-27.47-20.81-57.06-30.52-84.54C47.47,78.05,38.58,77.93,26.89,77.82z"/>
	<path class="st2" d="M66.88,77.82c10.99,30.28,21.98,60.57,32.97,90.85c0.23,0,0.47,0,0.7,0c10.99-30.28,21.98-60.57,32.97-90.85
		C111.31,77.82,89.09,77.82,66.88,77.82z"/>
	<path class="st2" d="M143.35,77.82c-4.26,3.4-30.78,76.58-32.27,85.24c22.56-28.29,45.14-56.59,67.7-84.89
		C166.97,78.05,155.16,77.93,143.35,77.82z"/>
</g>
</svg>
