<?xml version="1.0" encoding="utf-8"?>
<!-- Generator: Adobe Illustrator 23.0.6, SVG Export Plug-In . SVG Version: 6.00 Build 0)  -->
<svg version="1.1" xmlns="http://www.w3.org/2000/svg" xmlns:xlink="http://www.w3.org/1999/xlink" x="0px" y="0px"
	 viewBox="0 0 200 200" style="enable-background:new 0 0 200 200;" xml:space="preserve">
<style type="text/css">
	.st0{fill:#7E007C;}
	.st1{fill-rule:evenodd;clip-rule:evenodd;fill:#FFFFFF;}
	.st2{fill-rule:evenodd;clip-rule:evenodd;fill:#7E007E;}
</style>
<g id="Layer_1">
	<g>
		<circle class="st0" cx="99.88" cy="100" r="100"/>
	</g>
</g>
<g id="Layer_2">
	<path class="st1" d="M173,58.88c-1.83-0.36-6.54-1.41-8.19-0.14c1.14,1.04,2.28,2.52,2.54,4.39c-0.42,1.15-0.85,2.3-1.27,3.45
		c-0.64,0.95-2.03,1.41-2.86,2.19c-1.38,0.1-2.75,0.21-4.13,0.31c0.02-0.83-0.21-0.75-1.27-1.25c0,0.31,0,0.63,0,0.94
		c2.39,2.63,2.2,12.11,3.49,16.93c0.52,1.94-0.46,4.4,0,6.27c0.58,2.36-1.33,4.55-0.95,6.9c0.83,5.11-3.14,11.81-4.45,16.3
		c-3.85,13.28-14.39,23.62-23.82,32.92c-5.01,4.95-10.52,10.5-12.7,17.25c-0.43,1.32-2.68,3.67-2.22,4.7
		c0.44,2.01,1.13,1.78,1.91,3.14c-0.13,1.02-0.09,2.33,0.64,3.45c0.21-0.1,0.42-0.21,0.64-0.31c0.88,1.5-0.26,3.63,2.22,4.08
		c0.58-0.36,7.06-0.32,8.58-0.31c0.58,0.87,1.01,0.89,1.27,2.19c2.45-0.3,5.97-0.21,8.58,0.31c0,0.94,0,1.88,0,2.82
		c-3.29,1.81-6.52,0.07-10.16,1.25c0.33,0.93,0.21,1.51,0,2.51c-0.21,0-0.42,0-0.64,0c-2.26,1.46-8.72-2.4-10.8-2.82
		c-1.45-0.29-2.42,0.74-3.81,0.31c0,0.1,0,0.21,0,0.31c0.31,0.44,0.31,1.03,0.32,1.88c-0.94,0.5-1.82,0.65-3.49,0.63
		c-1.32-1.14-2.41-0.28-3.81-0.94c-0.21-0.31-0.42-0.63-0.63-0.94c-1.16-0.59-2.25-0.32-3.18-0.31c-0.28,0-1.15-0.9-1.27-0.94
		c-1.42-0.46-3.97,0.68-4.76,0.94c-1.76,0.59-4.95-0.4-6.35-0.63c0-0.63,0-1.25,0-1.88c2.24-1.45,4.06-3.07,6.67-3.45
		c0.11-0.31,0.21-0.63,0.32-0.94c-1.5-0.31-2.37-6.7-3.81-8.47c-2.52-3.07-4.42-7.15-6.67-10.35c-0.85-0.63-1.69-1.25-2.54-1.88
		c-0.13-0.2,0.13-0.94-0.32-1.57c-0.49-0.68-1.25-0.41-1.91-0.94c-0.52-0.43-0.5-1.21-0.32-1.57c-0.68-0.85-2.27-1.56-2.54-1.88
		c-1.61-1.41-3.41-4.72-5.72-6.27c-0.21,0.1-0.42,0.21-0.64,0.31c-0.41-0.49-0.54-0.53-0.95-0.94c-0.21-0.21-0.7-1.96-1.59-2.51
		c-0.34-0.22-0.39,0.53-0.95,0c-0.83-0.77-0.21-1.42-1.27-2.19c-4.49-3.27-6.56-6.03-9.53-10.03c-0.33-0.45-0.84-0.72-1.27-0.31
		c-0.32-0.84-0.64-1.67-0.95-2.51c-0.44-0.7-1.29-0.71-1.91-1.25c-0.75-0.67-0.31-1.43-0.64-2.19c-7.6,2.85-13.88,7.32-13.66,16.93
		c-1.73-0.38-3.01-3.9-3.49-5.33c-0.32-0.96-1.58-2.23-1.91-3.14c-1.29-3.62-0.54-12.51,0.95-14.74c0.99-1.47,2.51-2.79,3.49-4.39
		c-0.11,0-0.21,0-0.32,0c-1.06,0.99-2.59,1.35-3.81,2.19c-2.25,1.56-4.74,4.44-6.03,6.9c-0.79,1.5-0.32,2.51-0.64,3.76
		c-0.18,0.7-1.07,1.9-1.27,2.51c-0.38,1.17,0.21,2.62-0.32,3.45c-0.58-0.96-2.21-1.93-2.54-2.82c-1.02-2.72-2.14-4.62-3.49-7.84
		c0-0.94,0-1.88,0-2.82c-0.6-2.4-0.96-3.98-0.32-6.58c0.43-1.75-0.55-2.17,0-3.76c2.76-8.05,8.94-13.29,16.52-16.62
		c2.27-1,4.97-0.36,7.62-1.25c0-0.1,0-0.21,0-0.31c-2.01,0-4.02,0-6.03,0c-1.83-0.96-5.12,0.94-6.99,0.94
		c-7.56,0-14.42,6.92-17.47,12.54c-1.17,2.15-0.95,5.02-0.95,7.53c-0.38,0.27-0.36,0.26-0.64,0.63c-0.11,0-0.21,0-0.32,0
		c-0.39-1.29-1.1-3.04-1.91-4.08c-0.21,0.1-0.42,0.21-0.64,0.31c-0.83-1.24-0.07-1.52-0.64-2.82c-0.29-0.68-1.3-1.33-1.59-1.88
		c-0.54-1.04-0.56-3.05-0.95-4.39c-1.53-5.27,0.46-14.67,2.22-17.25c0.53-0.42,1.06-0.84,1.59-1.25c-0.11-2.09-0.21-4.18-0.32-6.27
		c0.62-1.64,2.17-4.33,2.54-5.96c-0.11-0.31-0.21-0.63-0.32-0.94c3.08-7.29,14.34-10.95,24.46-10.97c0.13,0.84,0.79,0.69,2.54,0.63
		c1.34,0.66,5.96,0.91,7.31,1.57c1.11,0.55,2.1,2.02,3.49,1.57c1.26,0.63,2.52,2.55,3.81,2.19c0.58-0.16,2.52,2.88,3.81,2.51
		c0.54-0.15,2.43,3.35,3.81,2.82c0.81,0.5,0.42,0.75,0.95,1.57c0.45,0.68,2.05,1.51,2.54,1.25c1.17,0.94,0.96,2.47,2.54,3.45
		c0.21-0.1,0.42-0.21,0.63-0.31c0,0,5.2,7.38,6.03,6.58c0.32,0.84,0.64,1.67,0.95,2.51c0.95,0,1.91,0,2.86,0
		c1.54-0.91,4.06,0.48,6.35,0c1.92-0.4,6.66-0.42,8.58,0c1.3,0.29,3.32-0.14,4.13-0.31c1-0.22,1.99,0.23,2.54,0.31
		c2.79,0.41,5.29-0.28,7.31-0.31c2.71-0.05,7.62-3.35,8.58-2.82c3.53-2.11,11.11-14.14,12.7-18.81c-0.11-0.31-0.21-0.63-0.32-0.94
		c0.24-0.72,1.07-2.37,1.59-3.14c0.63-0.94,1.88-1.85,2.54-2.82c1.73-2.55,3.58-6.76,6.67-7.84c0-0.1,0-0.21,0-0.31
		c-3.31,0.08-6.77-0.12-9.53-0.63c0-0.42,0-0.84,0-1.25c-0.79-1.27,0.11-2.33,0.64-3.14c1.58-2.43,3.51-3.84,6.67-4.7
		c1.29-0.35,2.54-0.05,3.49-0.63c-1.08-1.14-1.77-2.99-1.91-5.02c0.46-0.27,0.91-0.57,1.27-0.94c4.1-0.2,7.9-0.47,10.8,1.25
		c1.19,0.71,1.55,2.9,2.54,3.14c0.71-1.08,0.37-2.51,1.59-3.14c0.64-0.42,2.29-0.54,3.18-0.63c0.66,0.77,1.71,1.96,2.54,2.51
		c0.32,0,0.64,0,0.95,0c0,0.21,0,0.42,0,0.63c0.03,0.04,1.48,4,1.91,3.45c-0.11,1.25-0.21,2.51-0.32,3.76c0.21,0,0.42,0,0.64,0
		c0.58-0.39,3.68,0.21,4.73,0.24c0,0,3.03,0.72,3.14,1.03c-3.14,5.16-5.89,5.78-6.92,8.45c0.11,0,0.21,0,0.32,0
		c0.88,0.79,2.4,0.99,3.18,1.88C170.91,54.75,172.99,56.75,173,58.88z"/>
	<path class="st1" d="M142.26,37.42c0,0.21,0,0.42,0,0.63c0.32,0,0.64,0,0.95,0c0-0.1,0-0.21,0-0.31
		C142.9,37.63,142.58,37.52,142.26,37.42z"/>
	<path class="st2" d="M154.68,45.46c-1.55,1.03-1.55,3.1-1.49,4.4c0.98,0.77,2.02,1.8,3.71,0.73c1.45-1,1.2-1.3,1.45-2.03
		c0.19-0.71,0.58-1.61,0-2.07c-1.05-1.03,0,0-1.05-1.03S155.22,45.46,154.68,45.46z"/>
	<path class="st2" d="M104.78,162.21c-0.4,1.42-1.26,2.93-1.59,4.39c-0.18,0.8,0.26,1.13,0.32,1.57c-0.11,1.25-0.21,2.51-0.32,3.76
		c0.27,1.06,1.28,1.95,1.59,2.82c-0.11,0.31-0.21,0.63-0.32,0.94c0.26,0.79,1.15,1.62,1.59,2.19c0.67,0.89,0.25,1.61,0.64,2.19
		c0.63,0.42,2.07,0.35,3.18,0.31c1.04-0.67,2.67-0.09,4.13,0c0-0.21,0-0.42,0-0.63c-1.98-1.84-2.42-5.63-3.49-8.15
		c-0.39-0.9-1.57-1.59-1.91-2.51c-0.24-0.65,0.06-1.86-0.63-2.82c-0.33-0.45-1.31-0.72-1.59-1.25c0.11-0.31,0.21-0.63,0.32-0.94
		C106.4,163.48,105.37,162.6,104.78,162.21z"/>
</g>
</svg>
