<?xml version="1.0" encoding="utf-8"?>
<!-- Generator: Adobe Illustrator 23.0.6, SVG Export Plug-In . SVG Version: 6.00 Build 0)  -->
<svg version="1.1" xmlns="http://www.w3.org/2000/svg" xmlns:xlink="http://www.w3.org/1999/xlink" x="0px" y="0px"
	 viewBox="0 0 200 200" style="enable-background:new 0 0 200 200;" xml:space="preserve">
<style type="text/css">
	.st0{fill:#7E007C;}
	.st1{fill-rule:evenodd;clip-rule:evenodd;fill:#FFFFFF;}
	.st2{fill-rule:evenodd;clip-rule:evenodd;fill:#7E007C;}
</style>
<g id="Layer_1">
	<g>
		<circle class="st0" cx="100" cy="100" r="100"/>
	</g>
</g>
<g id="Layer_3">
	<path class="st1" d="M128.15,13c7.41-0.08,13.83,1.9,18.49,4.73c1.63,0.99,3.22,1.52,4.73,2.58c8.97,6.3,16.32,16.93,16.56,31.83
		c-1.95,0.65-5.39,0.23-7.74,0.22c-0.3-0.88-0.23-2.44-0.22-3.66c-0.42-0.67-0.19-1.69-0.43-2.58c-0.51-1.92-0.95-3.99-1.72-5.81
		c-4.39-10.38-15.01-19.47-29.68-19.57V13z"/>
	<path class="st1" d="M128.15,24.66c15.67-0.12,28.27,12.13,28.17,27.74h-7.74c0.09-11.29-9.14-20.07-20.43-20V24.66z"/>
	<path class="st1" d="M69.46,36.7c10.06-0.37,20.04-0.73,30.1-1.1c22.96,1.68,35.97-3.13,43.29,9.02c1.95,3.24,1.93,8.17,1.93,13.33
		c0,6.81,0,13.62,0,20.43c0,25.66,0,51.33,0,76.99c0,16.2,1.82,28.06-9.89,33.12c-5.78,2.5-20.38,1.29-28.59,1.29
		c-8.24,0-16.48,0-24.72,0c-3.76,0-8.69,0.67-12.04-0.22c-2.78-0.73-5.27-1.93-7.31-3.44c-6.52-4.85-6.02-13.23-6.02-24.52
		c0-15.84,0-31.68,0-47.52c0-15.34,0-30.68,0-46.02c0-7.29-0.98-16.78,1.29-22.15c1.56-3.69,5.11-7.05,8.81-8.6
		C67.08,36.99,68.29,36.86,69.46,36.7z"/>
	<path class="st2" d="M88.92,49.87c-0.25,0.17-0.36,0.17-0.86,0.21c-0.51,0.79-1.55,2.55-0.22,3.44c1.2,0.8,4.96,0.21,6.67,0.21
		c5.5,0,13.82,0.79,18.71-0.21c0.21-0.38,0.27-0.36,0.43-0.86c1.03-1.41-0.47-2.64-1.94-2.58c-1.14-0.7-4.41-0.22-6.02-0.21
		c-4.09,0-8.17,0-12.26,0C92,49.87,89.68,50.05,88.92,49.87z"/>
	<path class="st2" d="M133.93,67.59c-22.17,0-44.35,0-66.52,0c0,0.14,0,0.29,0,0.43c-0.33,0.61,0,3.96,0,5.37c0,4.58,0,9.17,0,13.75
		c0,16.83,0,33.66,0,50.49c0,5.08,0,10.17,0,15.25c0,1.69-0.24,5.24,0,5.59c0,0.07,0,0.14,0,0.21c2.36-0.6,10.78,0,14.81,0
		c11.01,0,22.03,0,33.04,0c4.36,0,8.73,0,13.09,0c2.03,0,4.7-0.3,5.58,0V67.59z"/>
	<path class="st2" d="M99.68,169.12c-0.19,0.14-0.68,0.29-0.86,0.43c-3.82,0.91-4.07,6.85-1.08,8.82c2.47,1.63,6.38,0.24,7.1-1.94
		c0.69-0.8,0.96-3.11,0.22-4.09C104.5,170.17,102.49,169.07,99.68,169.12z"/>
</g>
<g id="Layer_2">
</g>
</svg>
