<?xml version="1.0" encoding="utf-8"?>
<!-- Generator: Adobe Illustrator 23.0.6, SVG Export Plug-In . SVG Version: 6.00 Build 0)  -->
<svg version="1.1" id="Layer_2" xmlns="http://www.w3.org/2000/svg" xmlns:xlink="http://www.w3.org/1999/xlink" x="0px" y="0px"
	 viewBox="0 0 200 200" style="enable-background:new 0 0 200 200;" xml:space="preserve">
<style type="text/css">
	.st0{fill-rule:evenodd;clip-rule:evenodd;fill:#7E007E;}
	.st1{fill-rule:evenodd;clip-rule:evenodd;fill:#FFFFFF;}
</style>
<path class="st0" d="M124.04,159.43c0.03,30.96-47.67,30.64-48.02,0c-12.2,0.13-39.34,2.46-46.9-2.25c-0.94-2-1.31-3.25-1.13-4.87
	c4.39-10.06,18.66-11.6,22.89-22.1c5.17-12.87-1.46-37.98,1.88-52.44c2.85-12.34,9.82-22.87,18.76-29.22c3.5-2,7-4,10.5-5.99
	c-0.15-6.07-0.38-12.69,1.5-16.86c4.26-9.42,19.99-13.69,28.14-4.87c5.28,5.71,4.52,10.52,5.63,21.35
	C133.7,45.83,145.2,65,148.05,82.63c2.36,14.61-3.68,33.33,0.75,46.45c3.7,10.96,22.84,14.7,23.26,25.47
	c-0.19,1.81-0.94,2.5-2.25,3.75C157.74,161.83,138.22,159.47,124.04,159.43z"/>
<path class="st0" d="M44.13,26.07c3.41-0.42,3.91,1.13,5.63,2.25c2.82,9.24-7.29,14.91-11.26,21.35c-4.62,7.51-7.78,16.58-9.75,26.6
	c-0.5,4.87-1,9.74-1.5,14.61c-1.3,2.11-2.84,2.38-6,2.62c-7.33-2.88-5.82-15.02-3.75-23.23C21.84,53.01,30.04,33.68,44.13,26.07z"/>
<path class="st0" d="M154.8,26.07c12.52,2.71,24,29.14,27.39,42.33c2.03,7.9,5.39,24.43-4.88,25.1c-1.94-0.56-2.75-0.94-4.13-2.25
	c-1.45-4.91-0.96-12.08-2.25-17.61c-2.13-9.15-5.35-17.7-9.75-24.72c-3.65-5.83-13.3-11.31-11.25-19.85
	C151.54,27.89,152.11,26.41,154.8,26.07z"/>
<path class="st1" d="M99.66,27.56c-3.3,0.76-4.04,1.59-4.88,3.37c-0.94,1.55-1.32,6.95-0.38,8.99c3.88,0,7.75,0,11.63,0
	c0.08-3.57-0.09-7.17-0.75-9.74C103.1,28.51,103.85,27.52,99.66,27.56z"/>
<path class="st1" d="M95.53,51.54c-3.25,0.87-6.5,1.75-9.75,2.62c-9.71,4.15-17.45,12.94-20.63,23.6
	c-4.51,15.09,2.62,37.7-1.88,53.19c-2.06,7.1-8.75,11.62-10.5,16.48c31.64-0.12,63.28-0.25,94.92-0.37c0-0.12,0-0.25,0-0.37
	c-18.58-9.16-7.44-39.16-11.63-63.31C132.53,63.14,119.68,51.41,95.53,51.54z"/>
<path class="st1" d="M88.02,159.43c0.55,15.07,23.43,15.17,24.01,0C104.03,159.43,96.03,159.43,88.02,159.43z"/>
</svg>
