<?xml version="1.0" encoding="utf-8"?>
<!-- Generator: Adobe Illustrator 23.0.6, SVG Export Plug-In . SVG Version: 6.00 Build 0)  -->
<svg version="1.1" xmlns="http://www.w3.org/2000/svg" xmlns:xlink="http://www.w3.org/1999/xlink" x="0px" y="0px"
	 viewBox="0 0 200 200" style="enable-background:new 0 0 200 200;" xml:space="preserve">
<style type="text/css">
	.st0{fill-rule:evenodd;clip-rule:evenodd;fill:#7E007E;}
	.st1{fill-rule:evenodd;clip-rule:evenodd;fill:#FFFFFF;}
	.st2{fill-rule:evenodd;clip-rule:evenodd;fill:#F15A24;}
</style>
<g id="Layer_2">
	<path class="st0" d="M148.8,129.08c-1.52-4.5-1.8-9.66-1.61-15.09c-0.4,0.01-0.8,0.03-1.2,0.03c-19.66,0-34.73-14.42-38.31-32.67
		c-1.25-3.69-2.01-7.6-2.19-11.64c-0.47-10.4,4.18-20.02,11.46-26.99c0.12-0.18,0.24-0.36,0.36-0.54c-0.01,0-0.02-0.01-0.03-0.01
		c-1.11-10.83-0.35-15.64-5.63-21.35c-8.15-8.82-23.88-4.55-28.14,4.87c-1.88,4.17-1.65,10.79-1.5,16.86c-3.5,2-7,4-10.5,5.99
		c-8.94,6.35-15.91,16.88-18.76,29.22c-3.33,14.46,3.3,39.58-1.88,52.45c-4.22,10.5-18.5,12.05-22.89,22.1
		c-0.19,1.62,0.19,2.87,1.13,4.87c7.56,4.7,34.7,2.38,46.9,2.25c0.35,30.64,48.05,30.96,48.02,0c14.17,0.04,33.7,2.4,45.77-1.12
		c1.31-1.25,2.06-1.94,2.25-3.75C171.65,143.78,152.5,140.05,148.8,129.08z"/>
	<path class="st0" d="M44.13,26.07c3.41-0.42,3.91,1.13,5.63,2.25c2.82,9.24-7.29,14.91-11.26,21.35
		c-4.62,7.51-7.78,16.58-9.75,26.6c-0.5,4.87-1,9.74-1.5,14.61c-1.3,2.11-2.84,2.38-6,2.62c-7.33-2.88-5.82-15.02-3.75-23.23
		C21.84,53.01,30.04,33.68,44.13,26.07z"/>
	<path class="st1" d="M99.66,27.56c-3.3,0.76-4.04,1.59-4.88,3.37c-0.94,1.55-1.32,6.95-0.38,8.99c3.88,0,7.75,0,11.63,0
		c0.08-3.57-0.09-7.17-0.75-9.74C103.1,28.51,103.85,27.52,99.66,27.56z"/>
	<path class="st1" d="M109.24,53.01c-4.09-0.99-8.65-1.5-13.71-1.47c-3.25,0.87-6.5,1.75-9.75,2.62
		c-9.71,4.15-17.45,12.94-20.63,23.6c-4.51,15.09,2.62,37.7-1.88,53.19c-2.06,7.1-8.75,11.62-10.5,16.48
		c31.64-0.12,63.28-0.25,94.92-0.37v-0.37c-11.3-5.57-11.61-18.84-11.06-33.82"/>
	<path class="st1" d="M88.02,159.43c0.55,15.07,23.43,15.17,24.01,0C104.03,159.43,96.03,159.43,88.02,159.43z"/>
</g>
<g id="Layer_3">
	<circle class="st2" cx="146" cy="73" r="34"/>
</g>
</svg>
