<?xml version="1.0" encoding="utf-8"?>
<!-- Generator: Adobe Illustrator 23.0.6, SVG Export Plug-In . SVG Version: 6.00 Build 0)  -->
<svg version="1.1" xmlns="http://www.w3.org/2000/svg" xmlns:xlink="http://www.w3.org/1999/xlink" x="0px" y="0px"
	 viewBox="0 0 200 200" style="enable-background:new 0 0 200 200;" xml:space="preserve">
<style type="text/css">
	.st0{fill:#7E007C;}
	.st1{fill-rule:evenodd;clip-rule:evenodd;fill:#FFFFFF;}
	.st2{fill-rule:evenodd;clip-rule:evenodd;fill:#7E007E;}
</style>
<g id="Layer_1">
	<g>
		<circle class="st0" cx="99.88" cy="100" r="100"/>
	</g>
</g>
<g id="Layer_2">
	<path class="st1" d="M174.78,157.29c-4.21-0.07-8.43-0.14-12.64-0.21c1.14-20.35,2.28-40.7,3.43-61.05
		c-20.42-3.4-16.03-46.81,3.64-43.91C182,54,188,75,181.2,88.53c-3.07,6.11-10.17,7.35-10.2,7.47
		C172.21,116.06,173.56,137.23,174.78,157.29z"/>
	<path class="st1" d="M97.88,54.05c38.28-0.6,69.54,36.52,52.69,75.61c-8.32,19.3-23.35,28.99-47.34,32.99
		c-8.68,1.45-17.77-1.89-23.35-4.28c-20.9-8.97-42.91-36.5-30.63-68.12c5.9-15.19,16.52-26.46,31.49-32.56
		c3.77-1.54,8.09-2.39,12.42-3.21C94.74,54.33,96.31,54.19,97.88,54.05z"/>
	<path class="st1" d="M21.41,54.69c0.36,7.85,0.71,15.71,1.07,23.56c1.14,0,2.29,0,3.43,0c0.43-7.85,0.86-15.71,1.29-23.56
		c1.07,0,2.14,0,3.21,0c0.36,7.85,0.71,15.71,1.07,23.56c1.14,0,2.28,0,3.43,0c0.36-7.85,0.71-15.71,1.07-23.56
		c1.07,0,2.14,0,3.21,0c0.43,7.85,0.86,15.71,1.29,23.56c1.07,0,2.14,0,3.21,0c0.36-7.85,0.71-15.71,1.07-23.56
		c1.07,0,2.14,0,3.21,0c1.27,16.71,4.02,37.44-12.21,40.27c1.36,20.35,2.71,40.7,4.07,61.05c-4.21,0-8.43,0-12.64,0
		c1.07-20.35,2.14-40.7,3.21-61.05c-16-3.65-14.02-23.17-12.21-40.27C19.26,54.69,20.34,54.69,21.41,54.69z"/>
	<path class="st2" d="M96.81,66.9c-3.9,0.23-7.37,0.77-10.72,2.32c-12.22,4.83-21.5,14.22-25.48,27.24
		c-8.38,27.44,16.03,57.93,43.7,53.34c16.76-2.78,28.43-10.88,34.27-24.42C152.19,93.82,128.01,66.71,96.81,66.9z"/>
	<path class="st1" d="M98.74,72.04c25.31-0.32,46.52,24.3,35.34,50.34c-5.47,12.76-15.72,19.83-31.7,22.28
		c-23.44,3.58-44.94-24.91-36.2-48.2c3.85-10.25,11.29-18.1,21.42-22.06C90.91,73.1,94.31,72.35,98.74,72.04z"/>
</g>
</svg>
