<?xml version="1.0" encoding="utf-8"?>
<!-- Generator: Adobe Illustrator 23.0.6, SVG Export Plug-In . SVG Version: 6.00 Build 0)  -->
<svg version="1.1" xmlns="http://www.w3.org/2000/svg" xmlns:xlink="http://www.w3.org/1999/xlink" x="0px" y="0px"
	 viewBox="0 0 200 200" style="enable-background:new 0 0 200 200;" xml:space="preserve">
<style type="text/css">
	.st0{fill:#7E007C;}
	.st1{fill-rule:evenodd;clip-rule:evenodd;fill:#FFFFFF;}
	.st2{fill-rule:evenodd;clip-rule:evenodd;fill:#7E007E;}
</style>
<g id="Layer_1">
	<g>
		<circle class="st0" cx="99.88" cy="100" r="100"/>
	</g>
</g>
<g id="Layer_2">
	<path class="st1" d="M71.73,84.87c0.38,1.02,0.34,2.42,0.95,3.24c0-0.13,0-0.25,0-0.38c0.81-1.14,0.61-1.6,1.32-3.72c1-3,1-3,2-7
		c0.54-2.17,1-3,1.82-5.64c2.12-6.85,4.37-15.06,7.04-22.46C86.98,43.03,89.58,36.27,91,30c0,0,1,0,2,1
		c2.54,2.54,1.49,9.58,0.42,14.48c-0.06,1.84-0.13,3.68-0.19,5.52c-0.51,3.74-1.01,7.49-1.52,11.23c-1.22,4.78-1.74,9.8-3.24,14.46
		c-1.09,3.4-2.33,7.14-3.43,10.47c-0.75,2.27-0.94,4.51-1.9,6.66c-1.23,2.75-5.35,5.26-6.28,7.99c1.21,1.67,1.9,6.28,2.66,8.56
		c2.23,6.64,4.27,13.8,6.66,20.36c0.85,2.32,1.59,7.71,2.85,9.32c0-0.06,0-0.13,0-0.19c2.16-2.09,3.68-4.17,6.85-5.33
		c1.95-0.72,5.41-1.14,7.8-0.57c7.94,1.89,10.93,4.8,13.32,12.18c0.88,2.71,1.81,7.37,0.76,10.85c-1.87,6.19-6.24,9.87-12.56,11.61
		c-5.99,1.65-12.47-2.24-14.65-5.14c-4.34-5.78-5.63-14-8.18-21.7c-1.51-4.55-3.1-9.55-4.57-14.08c-0.77-2.38-0.88-4.39-1.71-6.66
		c-1.13-3.1-2.61-6.52-3.43-9.9c-0.06,0-0.13,0-0.19,0c-0.04,1.98-1.17,3.7-1.71,5.33c-1.28,3.8-2.38,7.57-3.62,11.23
		c-0.29,0.87-0.09,1.33-0.38,2.28c-2.01,6.65-4.3,13.76-6.47,20.36c-1.93,5.88-2.84,11.15-7.23,14.46
		c-0.89,0.67-1.68,1.68-2.66,2.28c-3,1.85-9.19,2.35-12.94,0.76c-4.1-1.73-7.62-4.83-9.33-8.94c-3.61-8.7,2-19.55,7.04-22.84
		c6.83-4.45,17.54-2.01,20.93,3.81c0.06,0,0.13,0,0.19,0c0-0.06,0-0.13,0-0.19c1.55-2.13,2.46-7.96,3.43-10.85
		c1.15-3.43,2.39-7.28,3.62-10.66c1.02-2.81,1.25-5.38,2.28-8.18c0.99-2.67,2.17-5.7,2.85-8.56c-1.5-1.2-2.64-3.01-3.81-4.57
		c-0.7-0.93-1.92-1.79-2.47-2.85c-0.19-0.82-0.38-1.65-0.57-2.47c-0.77-2.31-1.45-4.73-2.28-7.23c-1.41-4.24-2.64-9.03-4-13.51
		c-0.83-2.72-1.02-5.73-1.71-8.37c-0.51-3.68-1.02-7.36-1.52-11.04C52,50,52,49,52,46c0-3.58-1.76-8.97-1-12
		c0.45-1.78,1.33-3.6,3.41-3.75c0.77,3.93,2.56,7.94,3.81,11.61c2.42,7.16,4.08,14.14,6.47,21.31c0.92,2.76,1.61,5.63,2.66,8.56"/>
	<path class="st1" d="M128.25,32.34c8.94,0,17.89,0,26.83,0c4.07,0,8.45-0.55,10.09,1.9c1.17,1.76,0.76,5.55,0.76,8.37
		c0,6.6,0,13.2,0,19.79c0,24.39,0,48.84,0,73.65c0,7.04,0,14.08,0,21.12c0,3.91,0.23,7.4-2.09,8.94c-1.83,1.22-6.7,0.57-9.52,0.57
		c-5.77,0-11.55,0-17.32,0c-3.12,0-7,0.25-9.52-0.38c-2.56-4.35,1.62-4.19,5.71-4.19c4.06,0,8.12,0,12.18,0
		c2.24,0,4.92,0.16,6.85-0.19c0.27-1,0.44-2.22,0.19-3.43c-0.19-0.06-0.38-0.13-0.57-0.19c-1.06-0.64-4.04-0.19-5.52-0.19
		c-4.31-0.06-8.63-0.13-12.94-0.19c-2.3,0-5.59,0.53-6.28-1.14c-0.32-0.39-0.36-0.79-0.38-1.52c0.43-0.51,0.57-0.95,1.14-1.33
		c1.15-0.85,4.63-0.38,6.47-0.38c3.93,0,7.87,0,11.8,0c2.05,0,4.62,0.19,6.09-0.38c0.12-0.24,0.21-0.39,0.38-0.57
		c0.02-0.97-0.04-1.95-0.19-2.66c-1.6-0.89-4.94-0.57-7.42-0.57c-5.55,0-12.43,0.65-17.32-0.38c-0.49-0.75-0.89-1.01-0.95-2.28
		c0.21-0.26,0.28-0.55,0.38-0.95c0.33-0.21,0.69-0.48,0.95-0.76c7.93-0.06,15.86-0.13,23.79-0.19c0.6-0.91,0.8-1.51,0.76-3.24
		c-2.42-1.56-11.07-0.79-15.03-0.76c-4.57,0.18-7.49,0.75-9.33-0.38c-1.87-0.51-1.82-2.91-0.38-3.81c1.15-0.85,4.63-0.38,6.47-0.38
		c3.93,0,7.87,0,11.8,0c2.05,0,4.62,0.19,6.09-0.38c0.12-0.24,0.21-0.39,0.38-0.57c0.02-0.97-0.04-1.95-0.19-2.66
		c-1.57-0.87-4.8-0.57-7.23-0.57c-5.39,0-13.07,0.76-17.7-0.38c-2.53-4.4,1.56-4.19,5.71-4.19c4.82,0,9.64,0,14.46,0
		c1.64,0,4.42,0.37,4.95-0.76c0-0.82,0-1.65,0-2.47c-0.15-0.19-0.07-0.05-0.19-0.38c-0.19-0.06-0.38-0.13-0.57-0.19
		c-1.25-0.77-4.95-0.19-6.66-0.19c-5.35,0-12.93,0.74-17.51-0.38c-0.32-0.44-0.63-0.89-0.95-1.33c0.06-0.63,0.13-1.27,0.19-1.9
		c0.57-0.18,0.97-0.56,1.33-0.95c5.39,0,10.78,0,16.18,0c2.49,0,5.93,0.35,7.8-0.38c0.12-0.24,0.21-0.39,0.38-0.57
		c0.02-0.97-0.04-1.95-0.19-2.66c-1.63-0.92-5.09-0.57-7.61-0.57c-5.59,0-11.66,0.16-16.94-0.19c-0.55-0.83-1.08-1.06-1.14-2.47
		c0.34-0.43,0.47-1.25,0.95-1.52c1.14-0.64,5.88-0.18,7.61-0.19c5.19-0.04,11.06-0.22,16.56-0.19c0.6-0.91,0.8-1.51,0.76-3.24
		c-0.15-0.19-0.07-0.05-0.19-0.38c-3.16-1.42-14.21-0.57-18.84-0.57c-2.3,0-5.81,0.57-6.47-1.14c-0.32-0.39-0.36-0.79-0.38-1.52
		c0.43-0.51,0.57-0.95,1.14-1.33c1.15-0.85,4.63-0.38,6.47-0.38c3.93,0,7.87,0,11.8,0c2.05,0,4.62,0.19,6.09-0.38
		c0.12-0.24,0.21-0.39,0.38-0.57c0.02-0.97-0.04-1.95-0.19-2.66c-1.57-0.87-4.8-0.57-7.23-0.57c-5.58,0-12.61,0.71-17.51-0.38
		c-0.49-0.75-0.89-1.01-0.95-2.28c0.34-0.43,0.47-1.25,0.95-1.52c1.11-0.62,5.74-0.19,7.42-0.19c5.58-0.06,11.17-0.13,16.75-0.19
		c0.6-0.91,0.8-1.51,0.76-3.24c-0.35-0.24-0.33-0.37-0.76-0.57c-1.25-0.77-4.95-0.19-6.66-0.19c-5.58,0-12.6,0.71-17.51-0.38
		c-0.32-0.38-0.63-0.76-0.95-1.14c0-0.51,0-1.01,0-1.52c0.46-0.48,0.89-1.04,1.33-1.52c5.26,0,10.53,0,15.8,0
		c2.65,0,5.86,0.25,8.18-0.19c0.54-0.9,0.66-2.11,0.38-3.43c-1.57-0.87-4.8-0.57-7.23-0.57c-5.39,0-13.07,0.76-17.7-0.38
		c-0.5-0.83-0.77-1.17-0.76-2.66c0.57-0.51,1.14-1.01,1.71-1.52c5.2,0,10.4,0,15.61,0c2.65,0,5.86,0.25,8.18-0.19
		c0.24-0.82,0.39-1.76,0.38-3.05c-0.15-0.19-0.07-0.05-0.19-0.38c-2.14-0.61-5.63-0.38-8.37-0.38c-5.2,0-10.4,0-15.61,0
		c-0.6-0.56-1.21-0.63-1.52-1.52c-1.86-3.02,2.85-3.04,5.14-3.04c4.5,0,9.01,0,13.51,0c2.2,0,5.05,0.23,6.66-0.38
		c0.12-0.24,0.21-0.39,0.38-0.57c0.06-1.25,0.1-2.32-0.57-2.85c-1.2-0.9-4.94-0.38-6.85-0.38c-6.04,0-11.89,0.41-17.32-0.19
		c-0.72-0.98-2-3.06,0-3.81c1.09-0.93,5.02-0.38,6.85-0.38c5.52,0,11.35-0.22,17.13-0.19c0.62-0.94,0.8-1.65,0.76-3.43
		c-0.33-0.21-0.69-0.48-0.95-0.76c-6.15,0-12.31,0-18.46,0c-3.38,0-6.33,0.72-6.47-2.66c0.51-0.55,0.52-1.04,1.33-1.33
		c1.2-0.9,4.94-0.38,6.85-0.38c3.87,0,7.74,0,11.61,0c0.92,0.16,4.31,0.16,5.71-0.38c0.12-0.24,0.21-0.39,0.38-0.57
		c0.02-0.97-0.04-1.95-0.19-2.66c-1.63-0.92-5.09-0.57-7.61-0.57c-5.59,0-11.66,0.16-16.94-0.19c-0.55-0.83-1.08-1.06-1.14-2.47
		c0.21-0.26,0.28-0.55,0.38-0.95c1.87-1.08,5.58-0.76,8.56-0.76c5.39-0.06,10.78-0.13,16.18-0.19c0.24-0.35,0.37-0.33,0.57-0.76
		c0.31-0.47,0.21-1.69,0.19-2.47c-0.35-0.24-0.33-0.37-0.76-0.57c-0.94-0.58-5.51-0.19-7.04-0.19c-5.7,0-12.31,0.69-17.13-0.38
		c-0.32-0.38-0.63-0.76-0.95-1.14C126.68,33.36,127.28,33.25,128.25,32.34z"/>
	<path class="st2" d="M42.04,139.11c-1.14,0.38-2.28,0.76-3.43,1.14c-2.43,1.57-4.35,4.43-5.33,7.42
		c-2.14,6.54,0.7,12.13,5.14,14.46c1.16,0.61,3.3,1.79,5.33,1.33c5.08-1.15,7.89-4.01,9.71-8.37c2.53-6.08-0.04-13.05-4.57-15.03
		C46.98,139.22,44.73,139.07,42.04,139.11z"/>
	<path class="st2" d="M100.46,139.11c-0.94,0.57-2.36,0.33-3.43,0.76c-2.65,1.07-4.73,3.35-5.71,6.09c-2.39,6.7,2.39,13.46,5.9,15.8
		c1.18,0.79,3.63,2.22,5.9,1.71c4.44-1,7.41-3.19,8.94-7.04c1.07-2.69,0.47-6.66-0.38-8.94C109.84,142.49,107.42,139,100.46,139.11z
		"/>
</g>
</svg>
