<?xml version="1.0" encoding="utf-8"?>
<!-- Generator: Adobe Illustrator 23.0.6, SVG Export Plug-In . SVG Version: 6.00 Build 0)  -->
<svg version="1.1" xmlns="http://www.w3.org/2000/svg" xmlns:xlink="http://www.w3.org/1999/xlink" x="0px" y="0px"
	 viewBox="0 0 200 200" style="enable-background:new 0 0 200 200;" xml:space="preserve">
<style type="text/css">
	.st0{fill:#7E007C;}
	.st1{fill-rule:evenodd;clip-rule:evenodd;fill:#FFFFFF;}
	.st2{fill-rule:evenodd;clip-rule:evenodd;fill:#7E007E;}
</style>
<g id="Layer_1">
	<g>
		<circle class="st0" cx="99.88" cy="100" r="100"/>
	</g>
</g>
<g id="Layer_2">
	<path class="st1" d="M43.95,28.03c2.69,0,5.38,0,8.07,0c0,1.6,0,3.19,0,4.79c0.92,0,1.85,0,2.77,0
		c-0.08,21.67-0.17,43.35-0.25,65.02c0.5,0,1.01,0,1.51,0c1.02-3.11,0.25-8.46,0.25-12.1c0-8.82,0-17.64,0-26.46
		c1.81-2.01,2.64-5.46,3.78-8.06c2.19-4.97,4.89-10.16,7.31-15.12c0.08,0,0.17,0,0.25,0c0,0.08,0,0.17,0,0.25
		c3.11,7.9,6.22,15.79,9.32,23.69c-0.08,3.7-0.17,7.39-0.25,11.09c0,8.9,0,17.81,0,26.71c2.77,0,5.54,0,8.32,0
		c0-20.33,0-40.66,0-60.99c6.89,0,13.78,0,20.67,0c-0.03,2.82-0.54,6.99,0.25,9.33c10.08-3.02,20.16-6.05,30.24-9.07
		c0.44,4.11,2.53,8.58,3.78,12.35c2.33,7.02,4.06,14.13,6.3,20.92c5.98,18.09,10.49,36.58,16.38,54.44
		c1.45,4.41,2.06,8.43,3.53,12.85c1.69,5.1,3.01,10.52,4.79,15.88c1.02,3.08,2.67,6.53,3.02,10.08c-0.08,0-0.17,0-0.25,0
		c0,0.08,0,0.17,0,0.25c-3.68,0.23-7.61,2.21-10.84,3.28c-4.04,1.33-7.87,1.84-11.85,3.28c-1.55,0.56-7.7,2.95-8.82,2.52
		c-0.67-1.02-0.57-2.22-1.01-3.53c-1.43-4.28-2.52-8.84-4.03-13.36c-4.38-13.1-7.99-26.99-12.35-40.07
		c-1.35-4.05-2.27-8.01-3.53-11.85c-0.56-1.69-0.61-4.98-2.02-5.8c0,22.6,0,45.2,0,67.8c-1.68,0-3.36,0-5.04,0c0,1.51,0,3.02,0,4.54
		c-26.04,0-52.09,0-78.13,0c0-1.51,0-3.02,0-4.54c-2.1,0-4.2,0-6.3,0c0-22.68,0-45.37,0-68.05c2.75-0.92,7.58-0.27,10.84-0.25
		c0-19.99,0-39.99,0-59.98c-1.43,0-2.86,0-4.28,0c0.25,11.09,0.5,22.18,0.76,33.27c-0.56,0.2-1.37,0.26-2.27,0.25
		c-0.31-0.91-0.27-2.49-0.25-3.78c-0.76-11.59-1.51-23.19-2.27-34.78c3.86,0,7.73,0,11.59,0C43.95,31.22,43.95,29.63,43.95,28.03z"
		/>
	<path class="st2" d="M43.2,35.09c0.01,20.55-0.24,41.82-0.25,62.76c3.11,0,6.22,0,9.33,0c-0.01-20.85,0.24-42.79,0.25-62.5
		C50.17,34.55,46.03,35.07,43.2,35.09z"/>
	<path class="st2" d="M101.92,47.19c0-2.18,0-4.37,0-6.55c-4.28,0-8.57,0-12.85,0c-0.53,1.55-0.27,4.32-0.25,6.3
		C92.17,48.05,98.02,47.21,101.92,47.19z"/>
	<path class="st2" d="M150.81,145.23c1.57-0.16,9.68-2.53,10.59-3.28c0.2-0.26,0.09-0.07,0.25-0.5c-0.98-1.32-0.78-3.7-1.76-5.04
		c-0.27-0.19-0.24-0.15-0.76-0.25c-1.42,1.07-4.88,1.75-6.8,2.02c-0.19-1.57-0.85-2.36-1.01-4.03c2.62-0.15,4.82-1.43,7.31-2.02
		c0-0.25,0-0.5,0-0.76c-0.63-0.86-0.6-2.44-1.26-3.28c-0.3-0.2-0.42-0.19-1.01-0.25c-1.62,1.21-7.73,2.7-10.08,3.02
		c-0.34-1.26-0.67-2.52-1.01-3.78c0.08,0,0.17,0,0.25,0c0-0.08,0-0.17,0-0.25c3.53-1.01,7.06-2.02,10.59-3.02
		c-0.5-1.85-1.01-3.7-1.51-5.54c-2.79,0.3-4.76,1.74-7.56,2.02c0-0.08,0-0.17,0-0.25c-0.08,0-0.17,0-0.25,0
		c-0.17-1.47-0.66-2.18-0.76-3.78c1.5-0.06,6.85-1.6,7.31-2.52c-0.66-0.85-1-2.62-1.26-3.78c-0.34,0-0.67,0-1.01,0
		c-1.47,1.12-7.88,2.83-10.08,3.02c0-0.17,0-0.34,0-0.5c-0.56-0.72-0.87-2.21-1.01-3.28c0.08,0,0.17,0,0.25,0c0-0.08,0-0.17,0-0.25
		c1.66-0.16,10.13-2.64,10.59-3.53c-1-1.38-0.78-4.69-2.27-5.54c-1.24,0.93-5.37,1.87-7.06,2.27c0-0.17,0-0.34,0-0.5
		c-0.61-0.77-0.92-2.31-1.01-3.53c1.49-0.29,6.03-1.43,7.06-2.27c0.2-0.26,0.09-0.07,0.25-0.5c-0.68-0.88-1-2.55-1.26-3.78
		c-0.17,0-0.34,0-0.5,0c-2.52,0.84-5.04,1.68-7.56,2.52c-0.79,0.28-2.52,0.66-2.77,0.5c-0.74-0.8-1.1-2.45-1.26-3.78
		c0.17,0,0.34,0,0.5,0c2.08-1.5,9.3-1.78,10.33-3.78c-0.98-1.3-1.16-3.71-1.76-5.29c-2.18,0.59-4.37,1.18-6.55,1.76
		c-0.18-1.5-0.78-2.54-1.01-4.03c1.68-0.08,4.86-0.87,6.05-1.76c0.19-0.27,0.15-0.24,0.25-0.76c-0.65-0.86-0.61-2.39-1.26-3.28
		c-0.27-0.19-0.24-0.15-0.76-0.25c-1.41,1.06-7.21,2.59-9.33,2.77c-0.09-1.55-0.67-2.44-1.01-3.78c0.08,0,0.17,0,0.25,0
		c0-0.08,0-0.17,0-0.25c3.3-0.37,6.45-1.99,9.58-2.77c0-0.25,0-0.5,0-0.76c-0.98-1.3-1.16-3.71-1.76-5.29
		c-1.19,0.47-5.55,2.21-6.3,1.76c-0.66-0.85-1-2.62-1.26-3.78c2.21-0.47,3.93-1.54,6.3-1.76c-0.16-1.59-0.71-3.22-1.26-4.54
		c-1.57,0.34-9.31,3.11-9.83,2.77c-0.42-1.26-0.84-2.52-1.26-3.78c2.05-0.37,8.2-1.9,9.58-3.02c0.19-0.27,0.15-0.24,0.25-0.76
		c-0.92-1.21-1.54-4.15-1.76-5.8c-2.14,0.05-3.68,0.98-5.29,1.51c-5.22,1.73-10.41,3.23-15.63,4.54c0,0.34,0,0.67,0,1.01
		c1.73,2.41,2.24,7.71,3.28,10.84c2.73,8.23,4.74,16.76,7.56,25.2c5.4,16.18,9.4,32.99,14.87,49.4c2.18,6.54,3.8,13.37,6.05,20.16
		c0.93,2.8,2.09,5.77,2.77,8.82c0.34,0,0.67,0,1.01,0c1.91-1.39,5.17-1.48,7.56-2.27c3.98-1.31,8.1-2.81,12.35-3.78
		c0-0.25,0-0.5,0-0.76c-0.84-1.28-0.68-4.03-2.02-4.79c-1.58,1.2-4.97,1.81-7.06,2.27c0-0.17,0-0.34,0-0.5
		c-0.59-0.82-0.92-2.3-1.01-3.53c0.17,0,0.34,0,0.5,0c1.54-1.07,4.63-1.57,6.55-2.02c0.08-0.25,0.17-0.5,0.25-0.76
		c-0.68-0.88-1-2.55-1.26-3.78c-0.17,0-0.34,0-0.5,0c-1.48,1.11-8.36,2.78-10.59,3.28C151.64,147.75,151.03,146.78,150.81,145.23z"
		/>
	<path class="st2" d="M64.87,46.43c-1.72,2.29-6.7,12.01-6.8,15.37c0.17,0,0.34,0,0.5,0c1.15-2.01,3.51-3.12,4.79-5.04
		c0.08,0,0.17,0,0.25,0c0,0.08,0,0.17,0,0.25c1.01,1.43,2.02,2.86,3.02,4.28c0.17,0,0.34,0,0.5,0c0.45-1.73,1.74-3.03,2.52-4.54
		c0.08,0,0.17,0,0.25,0c0,0.08,0,0.17,0,0.25c1.91,1.37,2.87,4.26,5.04,5.29c0-0.84,0-1.68,0-2.52c-1.76-4.37-3.53-8.74-5.29-13.11
		c-1.01,0-2.02,0-3.02,0C66.25,46.42,65.61,46.42,64.87,46.43z"/>
	<path class="st2" d="M105.7,52.48c0.01,15.04-0.24,30.46-0.25,45.11c3.11,1.04,10.07,0.27,13.86,0.25c0,0.08,0,0.17,0,0.25
		c0.08,0,0.17,0,0.25,0c0-0.25,0-0.5,0-0.76c-1.73-2.39-1.77-6.32-2.77-9.33c-2.79-8.33-5.29-17.36-8.07-25.71
		C107.85,59.67,107.31,54.23,105.7,52.48z"/>
	<path class="st2" d="M38.16,105.15c0,17.47,0,34.95,0,52.42c2.21,0.74,6.13,0.27,8.82,0.25c1.07-3.24,0.25-12.26,0.25-16.38
		c0-12.1,0-24.2,0-36.29C44.21,105.15,41.18,105.15,38.16,105.15z"/>
</g>
</svg>
